<svg width="80" height="80" viewBox="0 0 80 80" fill="none" xmlns="http://www.w3.org/2000/svg">
<g id="help-icon-6">
<g id="Vector">
<path d="M2.18792 54.9604C2.18792 54.8581 2.22631 54.7813 2.29028 54.7173C2.35426 54.6533 2.43103 54.615 2.53339 54.615H13.3067L13.601 54.8836L10.2359 59.4002L2.55898 59.1955H2.53339C2.43103 59.1955 2.35426 59.1571 2.29028 59.0932C2.22631 59.0292 2.18792 58.9524 2.18792 58.8501V54.9604ZM13.7161 44.9932C13.6265 44.8908 13.5754 44.7629 13.5754 44.6349C13.5754 44.5454 13.601 44.4558 13.6521 44.3663L14.2663 43.3427L14.3303 45.6202L13.7289 44.9932H13.7161ZM22.0968 59.1827L23.8113 57.2763L25.6026 59.1827H22.084H22.0968ZM34.6485 55.1523L35.2627 54.615H45.5114C45.6138 54.615 45.6905 54.6533 45.7545 54.7173C45.8185 54.7813 45.8569 54.8581 45.8569 54.9604V58.8501C45.8569 58.9524 45.8185 59.0292 45.7545 59.0932C45.6905 59.1571 45.6138 59.1955 45.5114 59.1955H37.5146L34.5462 55.2419C34.5462 55.2419 34.6102 55.1907 34.6485 55.1651V55.1523ZM34.1367 43.6753L34.6741 44.5838C34.7253 44.6733 34.7509 44.7629 34.7509 44.8525C34.7509 44.9804 34.6997 45.1084 34.6102 45.2107L34.1367 45.7225V43.6753ZM2.495 61.3834L8.81567 61.5626C8.35506 62.5606 8.09916 63.6353 8.09916 64.7357C8.09916 65.2859 8.16313 65.8489 8.29108 66.399L10.5942 76.4302C11.0804 78.5158 12.9356 79.9872 15.0724 80C15.7121 80 16.3263 79.8721 16.8892 79.6289C17.7209 79.2707 18.4118 78.6821 18.898 77.9528C19.3842 77.2235 19.6657 76.3407 19.6657 75.4194C19.6657 75.074 19.6273 74.7285 19.5506 74.383L17.3882 65.0684C17.3754 64.9916 17.3627 64.9276 17.3627 64.8509C17.3627 64.6334 17.4394 64.4286 17.5674 64.2495L20.1263 61.409H27.6625L30.3367 64.2495C30.4646 64.4158 30.5414 64.6205 30.5414 64.8381C30.5414 64.9148 30.5414 64.9788 30.5158 65.0556L28.3535 74.3703C28.2767 74.7157 28.2383 75.074 28.2383 75.4194C28.2383 76.6605 28.7373 77.7993 29.5562 78.631C29.9656 79.0532 30.4646 79.3858 31.0148 79.6289C31.565 79.8721 32.1791 80 32.8317 80C34.9684 80 36.8237 78.5158 37.3099 76.443L39.613 66.4118C39.7409 65.8617 39.8049 65.2987 39.8049 64.7485C39.8049 63.5842 39.5362 62.4454 39.0116 61.409H45.5114C46.2023 61.409 46.8421 61.1276 47.3027 60.6669C47.7633 60.2063 48.0448 59.5794 48.0448 58.8756V54.986C48.0448 54.2951 47.7633 53.6553 47.3027 53.1947C46.8421 52.7341 46.2023 52.4526 45.5114 52.4526H37.7321L40.547 49.9704C42.0696 48.6269 42.8756 46.7333 42.8756 44.8013C42.8756 43.7393 42.6325 42.6517 42.1207 41.6537C42.108 41.6281 42.0824 41.6026 42.0696 41.577L41.7497 40.95C41.481 40.4126 40.8157 40.1951 40.2783 40.4638C39.7409 40.7325 39.5234 41.3978 39.7921 41.9352L40.1248 42.5878C40.1248 42.5878 40.1631 42.6389 40.1759 42.6645C40.5214 43.3427 40.6877 44.072 40.6877 44.7885C40.6877 46.1064 40.1375 47.3986 39.1012 48.3199L33.2027 53.5402C32.9468 53.7705 32.6142 53.8856 32.2943 53.8856C32.1407 53.8856 32 53.8601 31.8593 53.8089C31.7185 53.7577 31.6034 53.6937 31.4882 53.5914C31.2835 53.4122 31.1811 53.2843 31.1427 53.1819C31.0916 53.0796 31.0788 53.0156 31.066 52.8621C31.066 52.8365 31.066 52.8109 31.066 52.7853C31.066 52.6317 31.1171 52.4014 31.1939 52.1967C31.2323 52.0944 31.2707 52.0048 31.3091 51.928C31.3475 51.8513 31.3858 51.8129 31.4114 51.7873L36.1967 46.7205C36.6829 46.2087 36.9388 45.5306 36.9388 44.8525C36.9388 44.379 36.8109 43.9056 36.5678 43.4706L34.0216 39.1587C33.7657 38.7365 33.2667 38.5318 32.7933 38.6597C32.3199 38.7877 31.9872 39.2227 31.9872 39.7089L31.936 48.0512L29.8377 50.2775C29.6585 50.4694 29.5306 50.6613 29.4154 50.8533C29.2491 51.1475 29.1339 51.4546 29.0572 51.7489C28.9804 52.0432 28.9292 52.3375 28.9036 52.619C28.9036 52.6957 28.9036 52.7725 28.9036 52.8493C28.9036 53.3099 29.0188 53.7833 29.2235 54.1799C29.441 54.5894 29.7353 54.9092 30.0552 55.2035C30.375 55.485 30.7461 55.7025 31.1299 55.8433C31.5138 55.984 31.9104 56.048 32.3071 56.048C32.3583 56.048 32.3966 56.048 32.4478 56.048L36.5678 61.5242C37.2715 62.4454 37.6425 63.5714 37.6425 64.7101C37.6425 65.1068 37.6042 65.5034 37.5146 65.8872L35.2115 75.9056C34.9556 76.9932 33.9832 77.7737 32.8701 77.7737C32.5246 77.7737 32.2047 77.7097 31.9232 77.5818C31.4882 77.4026 31.1299 77.0828 30.874 76.6989C30.6182 76.3151 30.4774 75.8545 30.4774 75.381C30.4774 75.2019 30.503 75.0228 30.5414 74.8309L32.7037 65.5162C32.7549 65.2859 32.7805 65.0428 32.7805 64.7997C32.7805 64.0832 32.5374 63.3795 32.0768 62.8165L32.0256 62.7653L24.6429 54.8964C24.6429 54.8964 24.6174 54.8709 24.6046 54.8709C24.6046 54.8709 24.579 54.8453 24.579 54.8325C24.5662 54.8197 24.5406 54.8069 24.5278 54.7941C24.5022 54.7685 24.4638 54.7429 24.4382 54.7301C24.4126 54.7173 24.3742 54.6917 24.3487 54.6789C24.3103 54.6661 24.2847 54.6533 24.2463 54.6278C24.2079 54.615 24.1823 54.6022 24.1439 54.5894C24.1056 54.5894 24.08 54.5766 24.0416 54.5638C24.0032 54.5638 23.9776 54.5638 23.9392 54.551C23.9008 54.551 23.8752 54.551 23.8369 54.551C23.7985 54.551 23.7729 54.551 23.7345 54.551C23.6961 54.551 23.6705 54.551 23.6321 54.5638C23.5938 54.5638 23.5682 54.5766 23.5298 54.5894C23.4914 54.5894 23.4658 54.615 23.4274 54.6278C23.389 54.6405 23.3635 54.6533 23.3251 54.6789C23.2995 54.6917 23.2611 54.7173 23.2355 54.7301C23.2099 54.7557 23.1715 54.7685 23.1459 54.7941C23.1331 54.8069 23.1076 54.8197 23.0948 54.8325C23.0948 54.8325 23.0692 54.8581 23.0692 54.8709C23.0692 54.8709 23.0436 54.8964 23.0308 54.8964L15.9552 62.7653L15.9168 62.8037C15.4562 63.3667 15.2131 64.0832 15.2131 64.7997C15.2131 65.03 15.2387 65.2731 15.2899 65.5034L17.4522 74.8181C17.4906 75.01 17.5162 75.1891 17.5162 75.3683C17.5162 76.008 17.2603 76.6094 16.8253 77.0444C16.6078 77.2619 16.3519 77.441 16.0704 77.569C15.7889 77.6969 15.469 77.7609 15.1235 77.7609C14.0104 77.7609 13.038 76.9932 12.7821 75.8928L10.479 65.8745C10.3894 65.4906 10.3511 65.094 10.3511 64.6973C10.3511 63.5586 10.7221 62.4326 11.4258 61.5114L15.6865 55.7921C15.8145 55.8049 15.9424 55.8177 16.0832 55.8177C16.4798 55.8177 16.8764 55.7537 17.2603 55.613C17.6441 55.4722 18.0152 55.2547 18.3351 54.9732C18.7189 54.6277 19.0132 54.2183 19.2051 53.7833C19.397 53.3483 19.4994 52.8749 19.4994 52.4014C19.4994 51.557 19.1795 50.6997 18.5654 50.0344L16.6333 47.9872L16.4158 39.453C16.4158 38.9668 16.0704 38.5446 15.597 38.4166C15.1235 38.2887 14.6245 38.4934 14.3814 38.9156L11.8353 43.2275C11.5794 43.6497 11.4642 44.1359 11.4642 44.6094C11.4642 45.2875 11.7201 45.9528 12.2063 46.4774L16.9916 51.5442C17.2219 51.7873 17.3371 52.0944 17.3371 52.4014C17.3371 52.5678 17.2987 52.7469 17.2347 52.9004C17.1707 53.054 17.0684 53.2075 16.9148 53.3355C16.7997 53.4378 16.6845 53.5018 16.5438 53.553C16.4158 53.6042 16.2623 53.6297 16.1088 53.6297C15.7889 53.6297 15.4562 53.5146 15.2003 53.2843L9.30188 48.064C8.26549 47.1427 7.71531 45.8505 7.71531 44.5326C7.71531 43.8033 7.88165 43.074 8.2399 42.383L13.2427 32.6206C13.8057 31.5202 14.6885 30.6373 15.7377 30.0616C16.4542 31.2899 17.4394 32.3519 18.6166 33.1451C20.1008 34.1431 21.892 34.7317 23.8113 34.7317C25.7817 34.7317 27.6114 34.1176 29.1212 33.0684C30.3495 32.2111 31.3603 31.0724 32.064 29.7417C33.4202 30.2791 34.559 31.3027 35.2371 32.6333L35.493 33.1196C35.7617 33.6569 36.427 33.8745 36.9644 33.6058C37.5018 33.3371 37.7193 32.6717 37.4506 32.1343L37.1947 31.6353C36.0816 29.4602 34.0856 27.8992 31.7441 27.3491C31.2195 27.2211 30.6693 27.5026 30.4646 28.0144C29.94 29.3323 29.0316 30.471 27.88 31.2771C26.7285 32.0832 25.3339 32.5438 23.8241 32.5438C22.3527 32.5438 20.9836 32.096 19.8449 31.3283C18.7061 30.5606 17.7977 29.473 17.2475 28.2063C17.0172 27.6689 16.4158 27.413 15.8657 27.605C13.908 28.3087 12.2703 29.7289 11.2979 31.6226L6.29508 41.385C5.78329 42.383 5.54018 43.4578 5.54018 44.5326C5.54018 46.4646 6.34626 48.3583 7.86885 49.7017L10.9268 52.4014H2.53339C1.84246 52.4014 1.20272 52.6829 0.742103 53.1435C0.281487 53.617 0 54.2567 0 54.9604V58.8501C0 59.541 0.281487 60.1807 0.742103 60.6413C1.18992 61.0892 1.81687 61.3707 2.5078 61.3834H2.495Z" fill="#4A5777"/>
<path d="M20.1519 19.6593C21.0604 18.7509 22.3143 18.1879 23.7089 18.1879C25.1036 18.1879 26.3575 18.7509 27.2659 19.6593C28.1743 20.5678 28.7373 21.8217 28.7373 23.2163C28.7373 24.611 28.1743 25.8649 27.2659 26.7733C26.3575 27.6817 25.1036 28.2447 23.7089 28.2447C22.3143 28.2447 21.0604 27.6817 20.1519 26.7733C19.2435 25.8649 18.6805 24.611 18.6805 23.2163C18.6805 21.8217 19.2435 20.5678 20.1519 19.6593ZM23.7089 30.4454C25.7049 30.4454 27.509 29.6393 28.8141 28.3343C30.1192 27.0292 30.9252 25.2123 30.9252 23.2291C30.9252 21.2331 30.1192 19.429 28.8141 18.124C27.509 16.8061 25.7049 16 23.7089 16C21.7129 16 19.9088 16.8061 18.6038 18.1112C17.2987 19.4162 16.4926 21.2331 16.4926 23.2163C16.4926 25.2123 17.2987 27.0164 18.6038 28.3215C19.9088 29.6265 21.7257 30.4326 23.7089 30.4326V30.4454Z" fill="#4A5777"/>
</g>
</g>
</svg>
