<svg width="24" height="24" viewBox="0 0 24 24" fill="none" xmlns="http://www.w3.org/2000/svg">
<g id="calendar-icon" clip-path="url(#clip0_197_4994)">
<g id="Vector">
<path d="M10.3004 11.8143H7.38197V14.6835H10.3004V11.8143Z" fill="#F3FEFD"/>
<path d="M14.5923 7.59494H11.6738V10.4641H14.5923V7.59494Z" fill="#F3FEFD"/>
<path d="M11.6738 14.6835H11.794C12.4361 13.5308 13.4112 12.584 14.5923 11.9646V11.8143H11.6738V14.6835Z" fill="#F3FEFD"/>
<path d="M17.3391 3.71308C17.8129 3.71308 18.1974 3.33502 18.1974 2.8692V0.843882C18.1974 0.378059 17.8129 0 17.3391 0C16.8652 0 16.4807 0.378059 16.4807 0.843882V2.8692C16.4807 3.33502 16.8652 3.71308 17.3391 3.71308Z" fill="#F3FEFD"/>
<path d="M4.63519 3.71308C5.10901 3.71308 5.49356 3.33502 5.49356 2.8692V0.843882C5.49356 0.378059 5.10901 0 4.63519 0C4.16137 0 3.77682 0.378059 3.77682 0.843882V2.8692C3.77682 3.33502 4.16137 3.71308 4.63519 3.71308Z" fill="#F3FEFD"/>
<path d="M3.09013 20.4219C2.23691 20.4219 1.54506 19.7418 1.54506 18.903V6.24473H20.4292V11.6793C20.9837 11.9038 21.5039 12.1975 21.9742 12.5502V5.40084C21.9742 3.74346 20.6953 2.38143 19.0558 2.21266V2.8692C19.0558 3.80084 18.2867 4.55696 17.3391 4.55696C16.3914 4.55696 15.6223 3.80084 15.6223 2.8692V2.19409H6.35193V2.8692C6.35193 3.80084 5.58283 4.55696 4.63519 4.55696C3.68755 4.55696 2.91845 3.80084 2.91845 2.8692V2.23629C1.26695 2.48101 0 3.87848 0 5.56962V18.5654C0 20.3359 1.46094 21.7722 3.2618 21.7722H12.1785C11.8833 21.3536 11.6343 20.9013 11.4403 20.4219H3.09013Z" fill="#F3FEFD"/>
<path d="M18.8841 7.59494H15.9657V10.4641H18.8841V7.59494Z" fill="#F3FEFD"/>
<path d="M20.6009 17.2152H18.3691V14.8523C18.3691 14.4793 18.0618 14.1772 17.6824 14.1772C17.303 14.1772 16.9957 14.4793 16.9957 14.8523V17.8903C16.9957 18.2633 17.303 18.5654 17.6824 18.5654H20.6009C20.9803 18.5654 21.2876 18.2633 21.2876 17.8903C21.2876 17.5173 20.9803 17.2152 20.6009 17.2152Z" fill="#F3FEFD"/>
<path d="M6.00858 7.59494H3.09013V10.4641H6.00858V7.59494Z" fill="#F3FEFD"/>
<path d="M17.8197 11.8481C14.4069 11.8481 11.6395 14.5688 11.6395 17.9241C11.6395 21.2793 14.4069 24 17.8197 24C21.2326 24 24 21.2793 24 17.9241C24 14.5688 21.2326 11.8481 17.8197 11.8481ZM17.8197 22.6498C15.1657 22.6498 13.0129 20.5333 13.0129 17.9241C13.0129 15.3148 15.1657 13.1983 17.8197 13.1983C20.4738 13.1983 22.6266 15.3148 22.6266 17.9241C22.6266 20.5333 20.4738 22.6498 17.8197 22.6498Z" fill="#F3FEFD"/>
<path d="M6.00858 16.0338H3.09013V18.903H6.00858V16.0338Z" fill="#F3FEFD"/>
<path d="M10.3004 7.59494H7.38197V10.4641H10.3004V7.59494Z" fill="#F3FEFD"/>
<path d="M6.00858 11.8143H3.09013V14.6835H6.00858V11.8143Z" fill="#F3FEFD"/>
<path d="M10.3004 16.0338H7.38197V18.903H10.3004V16.0338Z" fill="#F3FEFD"/>
</g>
</g>
<defs>
<clipPath id="clip0_197_4994">
<rect width="24" height="24" fill="white"/>
</clipPath>
</defs>
</svg>
