<svg width="80" height="80" viewBox="0 0 80 80" fill="none" xmlns="http://www.w3.org/2000/svg">
<g id="help-icon-4">
<g id="Vector">
<path d="M26.5121 79.952H26.704C27.6794 79.952 28.6068 79.6002 29.3104 79.0086C30.03 78.417 30.5417 77.5854 30.7176 76.626L32.6044 66.7759C32.7483 66.0084 32.8283 65.2249 32.8283 64.4413C32.8283 62.7464 32.4765 61.0514 31.7889 59.4843L28.1431 50.6096V50.5777C28.0472 50.4018 27.9992 50.1939 27.9992 49.986C27.9992 49.938 27.9992 49.9061 27.9992 49.8581L28.4469 44.981C28.5269 44.1975 27.9352 43.4939 27.1517 43.414C26.3682 43.334 25.6646 43.9257 25.5846 44.7092L25.1369 49.5863C25.1369 49.7142 25.1369 49.8421 25.1369 49.97C25.1369 50.5617 25.2488 51.1373 25.4887 51.697L29.1345 60.5717V60.6036C29.6782 61.8189 29.95 63.1301 29.95 64.4413C29.95 65.033 29.8861 65.6406 29.7741 66.2323L27.8873 76.0664C27.8233 76.3542 27.6794 76.594 27.4715 76.7699C27.2636 76.9458 26.9918 77.0578 26.688 77.0578H26.4961C26.3202 77.0578 26.1603 77.0258 26.0164 76.9618C25.7925 76.8659 25.6166 76.706 25.4727 76.5141C25.3448 76.3222 25.2648 76.0824 25.2648 75.8425C25.2648 75.7626 25.2648 75.6826 25.2808 75.6026L27.1197 66.2003C27.1837 65.9125 27.2157 65.6086 27.2157 65.3048C27.2157 64.6492 27.0718 64.0096 26.7999 63.418L21.3312 50.7855C21.0913 50.2259 20.5157 49.8741 19.8921 49.9221C19.2844 49.97 18.7727 50.4018 18.6128 50.9934L15.2868 64.0256C15.1589 64.5213 15.0949 65.033 15.0949 65.5447C15.0949 65.7685 15.0949 65.9924 15.1269 66.2003L16.1823 75.6826C16.1823 75.7306 16.1823 75.7785 16.1823 75.8265C16.1823 76.1623 16.0544 76.4501 15.8305 76.69C15.6066 76.9139 15.3188 77.0418 14.967 77.0578C14.6472 77.0578 14.3754 76.9458 14.1675 76.7539C13.9436 76.5621 13.7997 76.3062 13.7677 75.9864L12.6004 66.8079C12.5205 66.1843 12.4885 65.5607 12.4885 64.937C12.4885 64.1215 12.5525 63.306 12.6964 62.4905L14.5513 50.9774V50.9295C14.6152 50.5137 14.6312 50.1139 14.6312 49.6982C14.6312 49.4263 14.6312 49.1545 14.5992 48.8667L13.7677 39.1445C13.6398 37.6094 12.9522 36.2023 11.8329 35.1629L4.68519 28.6708C4.02958 28.0792 3.53388 27.3276 3.23006 26.5121C3.0062 25.8885 2.89426 25.2489 2.89426 24.6252C2.89426 23.2501 3.40596 21.9069 4.38137 20.8675L8.79472 16.1183C9.0026 15.8945 9.27443 15.7825 9.56226 15.7825C9.77014 15.7825 9.97801 15.8465 10.1699 15.9744C10.3138 16.0864 10.4257 16.2143 10.5057 16.3582C10.5856 16.5021 10.6176 16.678 10.6176 16.8379C10.6176 17.1097 10.5217 17.3496 10.3138 17.5735L6.63602 21.3952C6.22027 21.8269 5.91645 22.3066 5.70857 22.8343C5.5007 23.362 5.40476 23.9057 5.40476 24.4493C5.40476 25.089 5.54867 25.7446 5.82051 26.3362C6.10833 26.9279 6.52408 27.4715 7.08375 27.9033L7.13172 27.9352L10.7935 30.5737C10.9214 30.6536 11.0334 30.7336 11.1453 30.8135C11.673 31.1493 12.1687 31.5331 12.6164 31.9488C14.4713 33.6918 16.9818 34.7631 19.7322 34.7631C22.2746 34.7631 24.6092 33.8517 26.4161 32.3326C26.9278 31.9009 27.5515 31.5331 28.2391 31.1653C28.5109 31.0214 28.7667 30.8615 29.0066 30.7016L32.1247 28.5589L32.2047 28.4949C32.7483 28.0632 33.1801 27.5195 33.4519 26.9279C33.7397 26.3362 33.8677 25.6966 33.8677 25.041C33.8677 24.4973 33.7717 23.9536 33.5639 23.426C33.356 22.9143 33.0522 22.4186 32.6364 21.9868L28.9586 18.1651C28.8467 18.0532 28.7827 17.9412 28.7348 17.8133C28.6868 17.6854 28.6548 17.5575 28.6548 17.4296C28.6548 17.2696 28.6868 17.0938 28.7667 16.9498C28.8467 16.8059 28.9426 16.678 29.1025 16.5661C29.2944 16.4381 29.5023 16.3742 29.7102 16.3742C29.998 16.3742 30.2698 16.4861 30.4777 16.71L34.9071 21.4591C35.8825 22.4985 36.3942 23.8417 36.3942 25.2169C36.3942 25.8565 36.2822 26.4961 36.0584 27.1037C35.7545 27.9352 35.2588 28.6708 34.6032 29.2624L31.2772 32.2527C30.6856 32.7803 30.6376 33.6918 31.1653 34.2834C31.693 34.8751 32.6044 34.9231 33.1961 34.3954L36.5381 31.3892C37.5455 30.4777 38.297 29.3424 38.7607 28.0951C39.1125 27.1517 39.2724 26.1763 39.2724 25.2009C39.2724 23.1061 38.4889 21.0434 37.0018 19.4763L32.5725 14.7432C31.8049 13.9277 30.7495 13.4959 29.7102 13.4959C28.9107 13.4959 28.1111 13.7358 27.4235 14.2315C26.8799 14.6152 26.4641 15.1109 26.1923 15.6706C25.9204 16.2303 25.7765 16.8219 25.7765 17.4296C25.7765 17.9253 25.8725 18.405 26.0484 18.8687C26.2403 19.3324 26.5121 19.7801 26.8799 20.1639L30.5577 23.9856C30.7016 24.1455 30.8135 24.3054 30.8775 24.4813C30.9414 24.6572 30.9894 24.8491 30.9894 25.041C30.9894 25.2648 30.9414 25.4887 30.8455 25.6966C30.7495 25.8885 30.6216 26.0644 30.4297 26.2243L27.3756 28.319C27.2157 28.4309 27.0558 28.5269 26.8799 28.6228C26.1123 29.0226 25.2968 29.5023 24.5453 30.1259C23.2181 31.2293 21.5391 31.8849 19.7002 31.8849C17.7014 31.8849 15.9105 31.1173 14.5353 29.8541C13.9436 29.3104 13.32 28.8307 12.6644 28.415C12.5844 28.367 12.5045 28.319 12.4405 28.271L8.81071 25.6486C8.61883 25.4887 8.4909 25.3128 8.39496 25.1209C8.29902 24.9131 8.25105 24.6892 8.25105 24.4653C8.25105 24.2734 8.28303 24.0816 8.36298 23.9057C8.42694 23.7298 8.53887 23.5699 8.68279 23.41L12.3606 19.5723C13.0961 18.8207 13.4639 17.8293 13.4639 16.8379C13.4639 16.2303 13.32 15.6226 13.0482 15.063C12.7763 14.5033 12.3606 14.0076 11.8169 13.6238C11.1293 13.1281 10.3298 12.8883 9.53028 12.8883C8.47491 12.8883 7.43554 13.304 6.668 14.1195L2.23866 18.8687C0.78353 20.4997 0 22.5625 0 24.6572C0 25.6166 0.159904 26.5921 0.511693 27.5355C0.975415 28.7987 1.74295 29.934 2.73436 30.8295L9.86608 37.3056C10.4577 37.8653 10.8255 38.6008 10.8895 39.4164L11.721 49.1385C11.737 49.3304 11.7529 49.5223 11.7529 49.7142C11.7529 50.002 11.737 50.2898 11.705 50.5617L9.86608 62.0268C9.70617 63.0022 9.62622 63.9776 9.62622 64.953C9.62622 65.7046 9.67419 66.4401 9.77014 67.1917L10.9374 76.3702C11.0654 77.3936 11.5611 78.289 12.2966 78.9286C13.0162 79.5683 13.9756 79.952 14.999 79.952C16.1343 79.952 17.1737 79.4883 17.9093 78.7368C18.6448 78.0012 19.0925 76.9778 19.0925 75.8585C19.0925 75.6986 19.0925 75.5547 19.0606 75.3948L18.0052 65.9125C18.0052 65.8005 17.9892 65.6886 17.9892 65.5767C17.9892 65.3048 18.0212 65.049 18.0851 64.7931L20.3718 55.8225L24.1775 64.6012V64.6332C24.2894 64.8571 24.3534 65.1129 24.3534 65.3528C24.3534 65.4647 24.3534 65.5767 24.3214 65.6886L22.4825 75.0909C22.4345 75.3628 22.4026 75.6186 22.4026 75.8905C22.4026 76.9938 22.8503 78.0172 23.5858 78.7687C23.9536 79.1365 24.3854 79.4403 24.8811 79.6642C25.3768 79.8721 25.9204 80 26.4961 80L26.5121 79.952Z" fill="#4A5777"/>
<path d="M16.9978 20.2598C17.6854 19.5723 18.6128 19.1565 19.6522 19.1565C20.6916 19.1565 21.619 19.5723 22.3066 20.2598C22.9942 20.9474 23.41 21.8749 23.41 22.9143C23.41 23.9536 22.9942 24.8811 22.3066 25.5687C21.619 26.2562 20.6916 26.672 19.6522 26.672C18.6128 26.672 17.6854 26.2562 16.9978 25.5687C16.3102 24.8811 15.8945 23.9536 15.8945 22.9143C15.8945 21.8749 16.3102 20.9474 16.9978 20.2598ZM13.0322 22.9143C13.0322 24.7372 13.7837 26.4002 14.967 27.5994C16.1663 28.7987 17.8293 29.5343 19.6522 29.5343C21.4751 29.5343 23.1381 28.7827 24.3374 27.5994C25.5367 26.4002 26.2722 24.7372 26.2722 22.9143C26.2722 21.0913 25.5207 19.4283 24.3374 18.2291C23.1381 17.0298 21.4751 16.2942 19.6522 16.2942C17.8293 16.2942 16.1663 17.0458 14.967 18.2291C13.7677 19.4283 13.0322 21.0913 13.0322 22.9143Z" fill="#4A5777"/>
<path d="M20.1479 12.1527C20.4357 11.8969 20.5796 11.5291 20.5796 11.0813C20.5796 10.6496 20.4357 10.2978 20.1479 10.026C19.8601 9.73816 19.5243 9.59424 19.1405 9.59424C18.7248 9.59424 18.389 9.73816 18.1011 10.01C17.8133 10.2818 17.6854 10.6496 17.6854 11.0813C17.6854 11.5131 17.8293 11.8809 18.1011 12.1527C18.373 12.4245 18.7248 12.5525 19.1405 12.5525C19.5243 12.5525 19.8601 12.4245 20.1479 12.1527Z" fill="#4A5777"/>
<path d="M22.5145 0.831501C21.8909 0.271837 20.9474 0 19.7002 0C19.2684 0 18.8367 0.0639616 18.373 0.207875C17.9093 0.335799 17.4935 0.543674 17.1257 0.815511C16.742 1.08735 16.4381 1.42315 16.1983 1.80692C15.9584 2.20668 15.8465 2.6704 15.8465 3.19808C15.8465 3.56586 15.9584 3.86968 16.1663 4.07755C16.3742 4.28543 16.63 4.39736 16.9019 4.39736C17.2696 4.39736 17.5255 4.28543 17.6694 4.06156C17.8293 3.8377 17.9732 3.59784 18.1011 3.34199C18.2291 3.08615 18.405 2.84629 18.6288 2.62243C18.8367 2.39856 19.1885 2.28663 19.6682 2.28663C20.1159 2.28663 20.4837 2.36658 20.7555 2.54247C21.0274 2.70238 21.1553 2.99021 21.1553 3.38997C21.1553 3.67779 21.0754 3.93364 20.9314 4.15751C20.7715 4.36538 20.5796 4.57326 20.3558 4.74915C20.1319 4.92505 19.8761 5.11693 19.5882 5.29282C19.3164 5.46872 19.0606 5.67659 18.8207 5.91645C18.5809 6.15631 18.389 6.42814 18.2451 6.73196C18.0851 7.05177 18.0212 7.43554 18.0212 7.88327C18.0212 8.12313 18.0532 8.331 18.1331 8.47492C18.2131 8.63482 18.309 8.74675 18.4209 8.8267C18.5329 8.90666 18.6608 8.97062 18.7887 9.0026C18.9166 9.03458 19.0446 9.05057 19.1565 9.05057C19.4443 9.05057 19.6842 8.93864 19.9081 8.69878C20.1319 8.47492 20.2758 8.18709 20.3398 7.86728C20.3718 7.59544 20.4677 7.37158 20.6276 7.21167C20.7875 7.05177 20.9954 6.89186 21.2193 6.73196C21.4431 6.58805 21.699 6.42814 21.9548 6.26824C22.2107 6.10834 22.4665 5.90046 22.6904 5.62862C22.9142 5.37278 23.1061 5.03698 23.25 4.63722C23.394 4.23746 23.4739 3.72576 23.4739 3.11813C23.4739 2.14271 23.1541 1.37517 22.5305 0.831501H22.5145Z" fill="#4A5777"/>
<path d="M30.6056 8.55487C30.3658 8.73076 30.1259 8.82671 29.8541 8.8427C29.5982 8.8427 29.3264 8.82671 29.0386 8.74676C28.7507 8.6668 28.4629 8.58685 28.1431 8.47492C27.8233 8.36299 27.5195 8.29902 27.1837 8.25105C26.8639 8.20308 26.5281 8.21907 26.1763 8.29902C25.8405 8.37898 25.4887 8.53888 25.1209 8.82671C24.929 8.97062 24.8011 9.13052 24.7212 9.29043C24.6412 9.45033 24.6092 9.59425 24.6092 9.73816C24.6092 9.88207 24.6412 10.01 24.7052 10.1379C24.7531 10.2658 24.8171 10.3618 24.8971 10.4577C25.073 10.6816 25.3128 10.8095 25.6326 10.8415C25.9524 10.8735 26.2562 10.8095 26.5441 10.6656C26.7679 10.5217 27.0078 10.4577 27.2477 10.4897C27.4875 10.5217 27.7274 10.5857 27.9832 10.6656C28.2391 10.7615 28.5109 10.8575 28.7987 10.9694C29.0865 11.0814 29.4064 11.1453 29.7581 11.1613C30.1099 11.1773 30.4777 11.1133 30.8935 10.9854C31.2932 10.8575 31.741 10.6016 32.2367 10.2179C33.0042 9.62623 33.4199 8.90666 33.4679 8.05917C33.5159 7.22767 33.1641 6.31621 32.3966 5.32481C32.1407 4.98901 31.8049 4.68519 31.4211 4.39737C31.0374 4.12553 30.6216 3.91765 30.1739 3.77374C29.7262 3.64582 29.2784 3.59784 28.8147 3.64582C28.351 3.69379 27.9192 3.88567 27.5035 4.22147C27.2157 4.44534 27.0398 4.71717 27.0078 5.005C26.9758 5.30882 27.0398 5.56466 27.2157 5.78853C27.4395 6.07636 27.6794 6.20428 27.9512 6.20428C28.2231 6.20428 28.4949 6.15631 28.7827 6.10834C29.0706 6.06037 29.3584 6.04438 29.6622 6.07636C29.966 6.10834 30.2698 6.31621 30.5577 6.68399C30.8295 7.03578 30.9894 7.37158 31.0214 7.69139C31.0534 8.0112 30.9095 8.28303 30.6056 8.53888V8.55487Z" fill="#4A5777"/>
<path d="M23.5219 10.2179C23.1381 10.1699 22.7703 10.2818 22.4185 10.5537C22.0668 10.8255 21.8589 11.1613 21.8269 11.5451C21.7949 11.9289 21.8909 12.2806 22.1467 12.6005C22.3866 12.9043 22.6904 13.0802 23.0742 13.1441C23.4579 13.2081 23.8257 13.0962 24.1775 12.8243C24.5133 12.5685 24.7052 12.2327 24.7531 11.8329C24.8011 11.4332 24.7052 11.0814 24.4653 10.7775C24.2095 10.4577 23.8897 10.2659 23.5059 10.2179H23.5219Z" fill="#4A5777"/>
<path d="M13.256 6.47611C13.304 6.1723 13.304 5.85249 13.256 5.5007C13.2081 5.1649 13.0801 4.79712 12.8723 4.42934C12.6644 4.06156 12.3286 3.6618 11.8649 3.26204C11.1293 2.62243 10.3458 2.36658 9.51429 2.47851C8.68279 2.59045 7.85129 3.11813 7.03578 4.06156C6.76394 4.38137 6.52409 4.76514 6.31621 5.19688C6.12432 5.62862 5.9964 6.07635 5.94843 6.54008C5.90046 7.0038 5.94843 7.45153 6.09234 7.89926C6.23626 8.331 6.50809 8.73076 6.90785 9.08255C7.19568 9.32241 7.48351 9.43434 7.78733 9.41835C8.09114 9.40236 8.331 9.27443 8.5069 9.06656C8.74675 8.79472 8.8267 8.52289 8.76274 8.26704C8.69878 8.01119 8.61883 7.73936 8.5069 7.46752C8.39496 7.19568 8.331 6.90785 8.31501 6.60404C8.28303 6.30022 8.42694 5.96442 8.74675 5.61263C9.03458 5.27683 9.3384 5.05297 9.64221 4.95703C9.94603 4.86108 10.2498 4.95703 10.5537 5.21287C10.7775 5.40476 10.9214 5.62862 10.9854 5.88447C11.0494 6.14032 11.0654 6.41215 11.0494 6.69998C11.0494 6.98781 11.0014 7.30761 10.9534 7.62742C10.9055 7.94723 10.9055 8.28303 10.9214 8.60284C10.9374 8.92265 11.0334 9.25844 11.1613 9.57825C11.3052 9.89806 11.5451 10.2179 11.8809 10.5057C12.0728 10.6656 12.2486 10.7615 12.4086 10.8095C12.5685 10.8575 12.7284 10.8575 12.8723 10.8095C13.0162 10.7775 13.1281 10.7296 13.2401 10.6496C13.352 10.5697 13.4479 10.4897 13.5119 10.4098C13.7038 10.2019 13.7677 9.93004 13.7358 9.61023C13.7038 9.29043 13.5918 9.0026 13.384 8.74675C13.1921 8.55487 13.0961 8.331 13.0801 8.09114C13.0642 7.85129 13.0801 7.59544 13.1121 7.32361C13.1441 7.05177 13.1921 6.76394 13.2401 6.46012L13.256 6.47611Z" fill="#4A5777"/>
<path d="M13.9117 10.7615C13.6398 11.0654 13.5279 11.4172 13.5439 11.8169C13.5759 12.2007 13.7517 12.5525 14.0875 12.8243C14.4233 13.1121 14.7911 13.2561 15.1749 13.2081C15.5587 13.1761 15.8785 13.0002 16.1503 12.6804C16.4062 12.3926 16.5181 12.0568 16.5021 11.657C16.5021 11.2732 16.3102 10.9374 15.9744 10.6336C15.6546 10.3618 15.2868 10.2339 14.8871 10.2658C14.4873 10.2978 14.1675 10.4577 13.9117 10.7456V10.7615Z" fill="#4A5777"/>
</g>
</g>
</svg>
