<svg width="50" height="80" viewBox="0 0 50 80" fill="none" xmlns="http://www.w3.org/2000/svg">
<g id="help-icon-7">
<g id="Vector">
<path d="M23.0751 21.7179C22.395 20.9035 22.0107 19.867 22.0107 18.7712C22.0107 18.5047 22.0402 18.2233 22.0846 17.9568C22.2916 16.8314 22.8681 15.8838 23.6812 15.2026C24.4943 14.5215 25.5292 14.1365 26.6232 14.1365C26.8893 14.1365 27.1702 14.1661 27.4363 14.2105C28.5599 14.4178 29.506 14.9953 30.1861 15.8097C30.8662 16.6241 31.2505 17.6607 31.2505 18.7564C31.2505 19.0229 31.221 19.3043 31.1766 19.5708C30.9696 20.6962 30.3931 21.6439 29.58 22.325C28.7669 23.0061 27.732 23.3911 26.638 23.3911C26.3719 23.3911 26.091 23.3615 25.8249 23.3171C24.7013 23.1098 23.7551 22.5323 23.0751 21.7179ZM26.638 26.0861C28.3825 26.0861 30.0235 25.4642 31.3097 24.398C32.5959 23.3319 33.5272 21.8215 33.8377 20.0447C33.9116 19.6152 33.956 19.171 33.956 18.7416C33.956 16.9943 33.335 15.3507 32.2706 14.0624C31.2062 12.7742 29.6982 11.8413 27.9242 11.5304C27.4954 11.4563 27.0519 11.4119 26.6232 11.4119C24.8787 11.4119 23.2377 12.0338 21.9515 13.1C20.6653 14.1661 19.734 15.6765 19.4235 17.4534C19.3496 17.8828 19.3052 18.327 19.3052 18.7416C19.3052 20.4889 19.9261 22.1325 20.9906 23.4208C22.055 24.709 23.563 25.6419 25.337 25.9528C25.7657 26.0269 26.2093 26.0713 26.638 26.0713V26.0861Z" fill="#4A5777"/>
<path d="M16.5405 8.02094C16.2744 7.41383 15.3874 7.44345 15.1657 8.06536L14.4117 10.1384C14.3673 10.2569 14.1899 10.2717 14.1308 10.1532L12.1498 6.40693C11.8984 5.93309 11.248 5.85905 10.8931 6.25885L9.00082 8.43555C8.70514 8.77612 8.76428 9.29438 9.11909 9.56091L14.6482 13.6182C15.0622 13.9143 15.6387 13.6626 15.6979 13.1591L15.9196 11.012C15.9492 10.7751 16.2449 10.7011 16.3779 10.8936L18.906 14.5658C19.0686 14.8176 19.453 14.5954 19.3347 14.3289L16.5553 8.02094H16.5405Z" fill="#4A5777"/>
<path d="M8.11384 16.9499L7.37465 14.9213C7.30073 14.6992 7.52249 14.5067 7.72946 14.6251L11.6028 16.8166C11.8541 16.9647 12.1055 16.6093 11.8837 16.4168L6.62068 11.9598C6.11803 11.5304 5.33449 11.9302 5.40841 12.5965L5.63016 14.8028C5.63016 14.9361 5.49711 15.0249 5.39362 14.9361L1.97857 12.4336C1.54984 12.1079 0.928918 12.33 0.78108 12.8482L0.027107 15.6469C-0.0911633 16.0763 0.189729 16.5205 0.633242 16.5945L7.37465 17.8235C7.8773 17.9124 8.29125 17.4237 8.11384 16.9499Z" fill="#4A5777"/>
<path d="M13.8056 36.5253L16.6293 34.0969L16.9102 39.8126L13.8056 36.5253ZM44.201 59.2992C43.4914 59.5065 43.0775 60.2617 43.2844 60.9724C43.4766 61.6091 43.5653 62.2607 43.5653 62.927C43.5653 63.5933 43.4618 64.2893 43.2549 64.9556L39.825 76.0316C39.5885 76.8016 38.8789 77.3347 38.0658 77.3347H37.9918C37.7257 77.3347 37.4744 77.2754 37.2527 77.1866C36.9274 77.0385 36.6465 76.8016 36.4395 76.5054C36.2474 76.2093 36.1291 75.8539 36.1291 75.4985C36.1291 75.306 36.1587 75.1135 36.2178 74.921L39.5589 64.6003C39.6772 64.2301 39.7363 63.8599 39.7363 63.4897C39.7363 62.5568 39.3667 61.6388 38.6867 60.9576L27.7171 49.9705C27.3327 49.5855 26.7562 49.467 26.2535 49.6743C25.7509 49.8817 25.4256 50.3703 25.4256 50.9182V61.4759C25.4256 62.9566 24.9821 64.3929 24.1542 65.622L17.7381 75.1432C17.5606 75.4097 17.3241 75.617 17.058 75.7503C16.7919 75.8835 16.4962 75.9576 16.2005 75.9576C15.8162 75.9576 15.4318 75.8391 15.0918 75.5874C14.8552 75.4097 14.663 75.1728 14.5448 74.921C14.4265 74.6693 14.3526 74.388 14.3526 74.1066C14.3526 73.7513 14.4561 73.3959 14.6778 73.0701L20.4435 64.5558C20.9461 63.8007 21.2122 62.9122 21.2122 62.0238C21.2122 61.9053 21.2122 61.772 21.1975 61.6536L20.0443 48.2528L20 47.8086C20 47.8086 19.9852 47.6753 19.9556 47.6013L19.2164 32.4977C19.2164 32.2164 19.1277 31.9498 19.0095 31.7129C18.8321 31.3575 18.5659 31.0762 18.2555 30.8985C17.945 30.706 17.5902 30.6024 17.2206 30.6024C16.9989 30.6024 16.7623 30.6468 16.5406 30.7208C16.3188 30.7949 16.1118 30.9281 15.9197 31.091L11.6915 34.7188C11.4254 34.9409 11.2184 35.2223 11.0854 35.5184C10.9523 35.8146 10.8784 36.1403 10.8784 36.4661C10.8784 37.014 11.0854 37.5915 11.4845 38.0357L14.9144 41.6783L16.0675 42.9073C16.2005 43.0554 16.2745 43.2479 16.2745 43.4404C16.2745 43.6033 16.2301 43.7514 16.1266 43.8994C16.0527 44.0031 15.9492 44.0771 15.8457 44.1364C15.7422 44.1808 15.624 44.2104 15.5057 44.2104C15.4022 44.2104 15.2987 44.1956 15.21 44.1512C15.1213 44.1068 15.0326 44.0623 14.9587 43.9735L9.65132 38.4799C9.07475 37.8728 8.79386 37.1028 8.79386 36.318C8.79386 35.8738 8.88257 35.4296 9.07475 35.0298C9.25216 34.63 9.53305 34.245 9.90265 33.934L15.1213 29.5066C16.3336 28.4849 17.8563 27.9222 19.4382 27.9222H19.6747C21.0792 29.2697 22.8532 30.1729 24.8047 30.5135C25.3961 30.6172 25.9874 30.6764 26.5788 30.6764C28.2641 30.6764 29.8755 30.2618 31.28 29.5066C32.5958 28.8107 33.7341 27.8186 34.6064 26.6192C34.7542 26.5303 34.902 26.4415 35.0351 26.3526L39.8398 23.1542C40.1503 22.9469 40.4016 22.6656 40.5642 22.3398C40.7269 22.0288 40.8156 21.6735 40.8156 21.3329C40.8156 21.0516 40.7564 20.7702 40.6529 20.5037C40.5494 20.2371 40.3868 19.9854 40.1651 19.7781L36.3952 16.0022C36.2178 15.8245 36.1291 15.6024 36.1291 15.3655C36.1291 15.1582 36.203 14.9509 36.3508 14.788C36.4396 14.6844 36.543 14.6103 36.6613 14.5659C36.7796 14.5215 36.8979 14.4919 37.0161 14.4919C37.1344 14.4919 37.2527 14.5215 37.3561 14.5659C37.4596 14.6103 37.5631 14.6695 37.6518 14.7732L41.5991 18.9045C41.9243 19.245 42.1609 19.63 42.3235 20.0298C42.4861 20.4296 42.56 20.8591 42.56 21.2885C42.56 21.8067 42.4418 22.3398 42.2052 22.8136C41.9687 23.2875 41.6287 23.7169 41.1704 24.0575L35.1386 28.5885C33.8376 29.5658 32.9949 31.0466 32.8027 32.6606L31.5461 43.2775C31.5018 43.6033 31.487 43.9142 31.487 44.2252C31.487 46.2982 32.2705 48.3121 33.7193 49.8372L35.1386 51.3476C35.656 51.8955 36.4987 51.9103 37.0457 51.4068C37.5927 50.8886 37.6075 50.0445 37.1048 49.4967L35.6856 47.9863C34.7246 46.9646 34.1924 45.6171 34.1924 44.2252C34.1924 44.0179 34.1924 43.7958 34.2368 43.5885L35.4934 32.9715C35.5969 32.0831 36.0552 31.2835 36.7796 30.7356L42.8114 26.2045C43.6245 25.5974 44.2306 24.8275 44.6446 23.9834C45.0585 23.1394 45.2655 22.2065 45.2655 21.2737C45.2655 20.5185 45.1324 19.7485 44.8367 19.0229C44.5559 18.2974 44.1271 17.6162 43.5506 17.0091L39.5885 12.8778C39.2337 12.5077 38.8197 12.2263 38.3762 12.0486C37.9327 11.8561 37.4596 11.7673 37.0013 11.7673C36.4987 11.7673 36.0108 11.8709 35.5525 12.0782C35.0942 12.2855 34.6655 12.5965 34.3107 12.9963C33.7193 13.6774 33.4237 14.5215 33.4237 15.3507C33.4237 16.2688 33.7785 17.2016 34.4733 17.8828L37.7997 21.2144L33.5271 24.0723C33.3645 24.1759 33.2019 24.2796 33.0541 24.3536C32.8619 24.4573 32.6845 24.6053 32.5662 24.783C31.9009 25.7455 31.0139 26.5303 29.9938 27.093C28.959 27.6409 27.8058 27.9518 26.564 27.9518C26.1352 27.9518 25.6917 27.9074 25.263 27.8334C23.6811 27.552 22.2767 26.782 21.2122 25.6271C20.9609 25.3457 20.6061 25.1976 20.2217 25.1976H19.4234C17.2058 25.1976 15.0474 25.9824 13.3621 27.4188L8.14338 31.8462C7.46332 32.4237 6.94589 33.1196 6.60586 33.8896C6.26583 34.6448 6.08843 35.474 6.08843 36.3032C6.08843 37.7395 6.62065 39.1907 7.69986 40.3308L13.0072 45.8392C13.3473 46.1946 13.7464 46.4611 14.1752 46.6388C14.6039 46.8165 15.0622 46.9054 15.5057 46.9054C16.0231 46.9054 16.5406 46.7869 17.0284 46.55C17.0728 46.5204 17.1171 46.4907 17.1763 46.4759L17.2798 48.4749C17.2798 48.6082 17.3241 48.7267 17.3537 48.8451L18.4625 61.8609C18.4625 61.8609 18.4625 61.9645 18.4625 62.0089C18.4625 62.3643 18.359 62.7197 18.152 63.0307L12.3863 71.5301C11.8541 72.3001 11.6028 73.2034 11.6028 74.077C11.6028 74.773 11.7654 75.4541 12.0611 76.076C12.3715 76.6979 12.8298 77.2754 13.4212 77.7197C14.2343 78.3268 15.21 78.6229 16.1414 78.6229C16.8658 78.6229 17.5902 78.4452 18.2407 78.1194C18.8912 77.7789 19.4678 77.2754 19.9113 76.6387L26.3422 67.1175C27.4806 65.4443 28.0719 63.4749 28.0719 61.4611V54.161L36.7352 62.8382C36.8978 63.001 36.9866 63.2232 36.9866 63.4601C36.9866 63.5489 36.9865 63.6378 36.9422 63.7266L33.6011 74.0474C33.4532 74.5212 33.3793 74.9951 33.3793 75.4541C33.3793 76.6683 33.8672 77.8085 34.6803 78.6377C35.0794 79.0523 35.5673 79.3929 36.1291 79.6298C36.6761 79.8667 37.297 80 37.9327 80H38.0066C40.0024 80 41.7617 78.6969 42.3383 76.8016L45.7681 65.7108C46.049 64.7779 46.1969 63.8303 46.1969 62.8826C46.1969 61.9645 46.0638 61.0465 45.7977 60.158C45.5907 59.4473 44.8367 59.0327 44.1271 59.24L44.201 59.2992Z" fill="#4A5777"/>
</g>
</g>
</svg>
