<svg width="80" height="80" viewBox="0 0 80 80" fill="none" xmlns="http://www.w3.org/2000/svg">
<g id="help-icon-3" clip-path="url(#clip0_215_3825)">
<g id="Vector">
<path d="M76.96 68.44C76.96 68.44 76.784 68.552 76.672 68.552H61.392C61.392 68.552 61.376 68.552 61.36 68.552C61.344 68.552 61.344 68.552 61.328 68.552H3.328C3.216 68.552 3.12 68.504 3.04 68.44C2.96 68.36 2.928 68.264 2.928 68.152V66.744C2.928 65.224 3.536 63.88 4.528 62.888C5.52 61.896 6.88 61.288 8.384 61.288L29.472 61.368C29.296 61.768 29.216 62.184 29.216 62.552C29.216 62.92 29.28 63.24 29.376 63.496C29.456 63.736 29.568 63.928 29.648 64.072C29.792 64.296 30.016 64.6 30.4 64.888C30.608 65.032 30.848 65.176 31.136 65.272C31.424 65.368 31.744 65.432 32.08 65.432H76.72L77.056 67.288V68.152C77.056 68.264 77.008 68.36 76.944 68.44H76.96ZM5.968 52.52C6.576 51.912 7.392 51.544 8.32 51.544C9.248 51.544 10.064 51.912 10.672 52.52C11.28 53.128 11.648 53.944 11.648 54.872C11.648 55.8 11.28 56.616 10.672 57.224C10.064 57.832 9.248 58.2 8.32 58.2C7.392 58.2 6.576 57.832 5.968 57.224C5.36 56.616 4.992 55.8 4.992 54.872C4.992 53.944 5.36 53.128 5.968 52.52ZM19.12 52.264C19.6 52.008 20.144 51.864 20.736 51.864L34 51.752L32.496 54.936V54.968H32.48L31.232 57.608L30.832 58.44L18.768 58.392C19.216 57.304 19.456 56.104 19.456 54.856C19.456 53.96 19.328 53.08 19.088 52.264H19.12ZM79.408 63.784C79.392 63.64 79.36 63.512 79.296 63.384C78.944 62.584 78.512 61.656 77.92 60.76C77.616 60.312 77.28 59.88 76.864 59.496C76.448 59.112 75.968 58.744 75.408 58.504C74.544 58.104 73.808 57.464 73.264 56.632C72.976 56.2 72.608 55.832 72.24 55.56C71.68 55.144 71.104 54.904 70.576 54.696C70.048 54.504 69.568 54.344 69.168 54.184L67.872 53.656L66.624 53.144L66.304 53.016L61.664 51.128C61.328 50.984 60.992 50.856 60.656 50.728C59.904 50.44 59.056 50.824 58.768 51.576C58.48 52.328 58.864 53.176 59.616 53.464C59.936 53.592 60.24 53.704 60.544 53.832L65.184 55.72L65.504 55.848L66.752 56.36L68.048 56.888C68.784 57.176 69.44 57.368 69.92 57.592C70.16 57.704 70.352 57.8 70.496 57.912C70.64 58.024 70.736 58.12 70.832 58.264C71.664 59.496 72.8 60.52 74.192 61.16C74.4 61.256 74.608 61.4 74.832 61.608C75.072 61.848 75.328 62.152 75.552 62.52H32.128L32.496 61.736L33.856 58.872L35.104 56.232V56.2H35.12L38.08 49.96L48.288 50.984C49.088 51.064 49.808 50.472 49.888 49.672C49.968 48.872 49.376 48.152 48.576 48.072L38.352 47C38.256 47 38.16 47 38.064 47C36.976 47 35.968 47.624 35.488 48.632L35.392 48.824L20.704 48.952C19.024 48.952 17.488 49.608 16.352 50.664C15.904 51.08 15.76 51.736 16 52.312C16.336 53.096 16.528 53.96 16.528 54.872C16.528 55.992 16.24 57.032 15.744 57.944C15.664 58.088 15.616 58.232 15.6 58.392H13.424C14.112 57.384 14.512 56.168 14.512 54.856C14.512 53.144 13.808 51.576 12.688 50.44C11.568 49.32 10 48.616 8.272 48.616C6.56 48.616 4.992 49.32 3.856 50.44C2.736 51.56 2.032 53.128 2.032 54.856C2.032 56.568 2.736 58.136 3.856 59.272C3.936 59.352 4.032 59.432 4.112 59.512C3.488 59.88 2.912 60.312 2.416 60.824C0.944 62.328 0 64.44 0 66.744V68.152C0 69.064 0.368 69.912 0.976 70.504C1.568 71.112 2.416 71.48 3.328 71.48H7.648V78.632C7.648 79.432 8.304 80.088 9.104 80.088C9.904 80.088 10.56 79.432 10.56 78.632V71.48H17.52V78.632C17.52 79.432 18.176 80.088 18.976 80.088C19.776 80.088 20.432 79.432 20.432 78.632V71.48H59.872V78.632C59.872 79.432 60.528 80.088 61.328 80.088C62.128 80.088 62.784 79.432 62.784 78.632V71.48H69.744V78.632C69.744 79.432 70.4 80.088 71.2 80.088C72 80.088 72.656 79.432 72.656 78.632V71.48H76.656C77.568 71.48 78.416 71.112 79.008 70.504C79.616 69.912 79.984 69.064 79.984 68.152V67.144C79.984 67.064 79.984 66.968 79.952 66.872L79.376 63.768L79.408 63.784Z" fill="#4A5777"/>
<path d="M61.159 23.1117H58.8357C58.394 23.1117 58.0013 22.9362 57.7068 22.6649C57.4123 22.3777 57.2487 21.9947 57.2487 21.5638V15.7394C57.2487 15.0372 56.6597 14.4628 55.9398 14.4628C55.2199 14.4628 54.6309 15.0372 54.6309 15.7394V21.5638C54.6309 22.6968 55.1054 23.7181 55.858 24.4521C56.6106 25.1862 57.6741 25.6489 58.8194 25.6489H61.1427C61.8626 25.6489 62.4516 25.0745 62.4516 24.3723C62.4516 23.6702 61.8626 23.0957 61.1427 23.0957L61.159 23.1117Z" fill="#4A5777"/>
<path d="M68.8325 24.2606H70.5995C70.3377 26.7979 69.2742 29.0957 67.6544 30.9628L66.4928 29.8298C65.9856 29.3351 65.1675 29.3351 64.644 29.8298C64.1368 30.3245 64.1368 31.1223 64.644 31.633L65.7729 32.734C63.8586 34.2021 61.519 35.1596 58.9503 35.3989V33.9468C58.9503 33.2447 58.3776 32.6702 57.6577 32.6702C56.9378 32.6702 56.3488 33.2287 56.3488 33.9309V35.3989C53.7801 35.1596 51.4241 34.2021 49.5262 32.734L50.6551 31.633C51.1623 31.1383 51.1623 30.3404 50.6551 29.8298C50.1479 29.3351 49.3298 29.3351 48.8063 29.8298L47.6283 30.9628C46.0085 29.1117 44.945 26.7979 44.6832 24.2606H46.4339C47.1538 24.2606 47.7428 23.7021 47.7428 23C47.7428 22.2979 47.1702 21.7234 46.4503 21.7234H44.6996C44.9614 19.1862 46.0249 16.8883 47.6446 15.0213L48.8063 16.1543C49.3135 16.6489 50.1315 16.6489 50.6551 16.1543C51.1623 15.6596 51.1623 14.8617 50.6551 14.3511L49.5262 13.25C51.4404 11.7819 53.7801 10.8245 56.3488 10.5851V12.0372C56.3488 12.7394 56.9215 13.3138 57.6414 13.3138C58.3613 13.3138 58.9503 12.7553 58.9503 12.0532V10.5851C61.519 10.8245 63.875 11.7819 65.7729 13.25L64.644 14.3511C64.1368 14.8457 64.1368 15.6436 64.644 16.1543C65.1512 16.6489 65.9692 16.6489 66.4928 16.1543L67.6708 15.0213C69.2906 16.8723 70.3541 19.1862 70.6158 21.7234H68.8652C68.1453 21.7234 67.5563 22.2819 67.5563 22.984C67.5563 23.6862 68.1289 24.2606 68.8488 24.2606H68.8325ZM57.625 8C53.322 8 49.4116 9.67553 46.5812 12.3883C43.7507 15.0851 42 18.8511 42 23C42 27.1489 43.7507 30.8989 46.5812 33.6117C49.4116 36.3245 53.322 38 57.625 38C61.928 38 65.8383 36.3245 68.6688 33.6117C71.4993 30.8989 73.25 27.1489 73.25 23C73.25 18.8511 71.4993 15.1011 68.6688 12.3883C65.8547 9.67553 61.9444 8 57.625 8Z" fill="#4A5777"/>
</g>
</g>
<defs>
<clipPath id="clip0_215_3825">
<rect width="80" height="80" fill="white"/>
</clipPath>
</defs>
</svg>
