<svg width="80" height="80" viewBox="0 0 80 80" fill="none" xmlns="http://www.w3.org/2000/svg">
<g id="help-icon-2">
<g id="Vector">
<path d="M2.34612 68.0544C1.96665 67.8425 1.62933 67.5883 1.30608 67.3058C1.12336 68.1533 1.12336 69.029 1.36229 69.933C1.3904 70.0319 1.41851 70.1449 1.46068 70.2438C1.48879 70.3426 1.545 70.4133 1.57311 70.498C3.25968 71.289 5.22733 71.5433 7.15282 71.0206C7.30742 70.9783 7.44797 70.9359 7.58852 70.8935C9.62644 70.2155 11.2427 68.7889 12.1984 66.995C12.1703 66.8962 12.1422 66.7973 12.1141 66.6984C11.7909 65.7238 11.2146 64.9045 10.4978 64.2548C10.3854 64.7915 10.2167 65.3142 9.96376 65.7944C9.30319 67.0233 8.19287 67.9979 6.7874 68.4781C6.68902 68.5064 6.59063 68.5488 6.4782 68.577C5.03056 68.9725 3.56888 68.7606 2.34612 68.0968V68.0544Z" fill="#4A5777"/>
<path d="M7.32163 66.7266C7.34974 66.2888 7.44813 65.8791 7.57462 65.4554C6.73134 65.639 5.93022 65.9921 5.21343 66.5854C5.12911 66.656 5.04478 66.7266 4.9745 66.7973C4.90423 66.8679 4.84801 66.9385 4.79179 67.0091C4.76368 68.8877 5.33992 70.7805 6.6189 72.3342C6.71728 72.4472 6.81567 72.5744 6.91405 72.6874C8.36168 74.2835 10.3293 75.1734 12.3392 75.3146C12.4235 75.244 12.4938 75.1734 12.5781 75.1027C13.337 74.4106 13.843 73.549 14.1241 72.6167C13.59 72.7297 13.0559 72.8004 12.5078 72.758C11.1164 72.6591 9.7812 72.0517 8.76927 70.95C8.69899 70.8652 8.62872 70.7946 8.55845 70.7099C7.60273 69.5375 7.19514 68.1109 7.29352 66.7266H7.32163Z" fill="#4A5777"/>
<path d="M14.377 70.95C14.7987 70.9076 15.2344 70.95 15.656 71.0065C15.3468 70.2014 14.8689 69.4528 14.1803 68.8454C14.0959 68.7748 14.0116 68.7041 13.9413 68.6335C13.8711 68.577 13.7867 68.5346 13.7024 68.4781C11.8612 68.7465 10.0904 69.6223 8.75516 71.1336C8.65678 71.2466 8.5584 71.3738 8.46001 71.4868C7.12482 73.1818 6.56263 75.2722 6.73129 77.2921C6.81562 77.3627 6.88589 77.4334 6.97022 77.4899C7.77133 78.1255 8.69894 78.4927 9.65466 78.634C9.4579 78.1255 9.30329 77.6029 9.26113 77.052C9.13464 75.6536 9.52817 74.227 10.4417 73.0546C10.512 72.9699 10.5682 72.8851 10.6525 72.8145C11.6504 71.6845 12.9856 71.0489 14.377 70.9359V70.95Z" fill="#4A5777"/>
<path d="M3.20346 68.8454C3.86403 67.6165 4.97435 66.6419 6.37982 66.1617C6.4782 66.1334 6.57658 66.091 6.68902 66.0628C8.13665 65.6673 9.59834 65.8792 10.8211 66.543C12.0439 67.2069 13.0136 68.3228 13.4915 69.7353C13.5196 69.8341 13.5618 69.933 13.5899 70.046C13.9834 71.5009 13.7726 72.9699 13.112 74.1987C12.4514 75.4276 11.3411 76.4022 9.93565 76.8825C9.83727 76.9107 9.73888 76.9531 9.62645 76.9814C8.17882 77.3769 6.71713 77.165 5.49437 76.5011C4.27162 75.8372 3.30184 74.7214 2.82399 73.3089C2.79588 73.21 2.75371 73.1111 2.7256 72.9981C2.33207 71.5433 2.54289 70.0743 3.20346 68.8454ZM0.406581 74.114C1.08121 76.1621 2.50073 77.7865 4.28567 78.747C6.05656 79.7075 8.19287 80.0182 10.3011 79.4532C10.4557 79.4109 10.5962 79.3685 10.7368 79.3261C12.7747 78.6481 14.391 77.2215 15.3467 75.4276C16.3024 73.6479 16.6116 71.5009 16.0494 69.3821C16.0073 69.2268 15.9651 69.0855 15.9229 68.9443C15.2483 66.8962 13.8288 65.2718 12.0439 64.3113C10.273 63.3508 8.13665 63.04 6.02845 63.605C5.87385 63.6474 5.7333 63.6898 5.59276 63.7322C3.55483 64.4102 1.93854 65.8368 0.982823 67.6307C0.027105 69.4104 -0.282098 71.5574 0.280089 73.6761H0.266035C0.308199 73.8315 0.350363 73.9728 0.392527 74.114H0.406581Z" fill="#4A5777"/>
<path d="M31.0945 30.8452C30.9961 30.6475 30.9539 30.4356 30.9539 30.2378C30.9539 29.9836 31.0242 29.7293 31.1507 29.5175C31.2772 29.3056 31.4599 29.122 31.7129 28.9948C31.9096 28.896 32.1205 28.8536 32.3172 28.8536C32.4578 28.8536 32.6124 28.8818 32.7529 28.9242C33.1043 29.0513 33.3713 29.2773 33.54 29.6163L36.9693 36.4952C37.1661 36.8766 37.4612 37.2014 37.8126 37.4274C38.164 37.6534 38.5856 37.7664 39.0213 37.7664H44.9664C45.3459 37.7664 45.6832 37.9218 45.9362 38.1761C46.1892 38.4303 46.3438 38.7693 46.3438 39.1507C46.3438 39.5321 46.1892 39.871 45.9362 40.1253C45.6832 40.3795 45.3459 40.5349 44.9664 40.5349H38.2061C37.4893 40.5349 36.8288 40.3372 36.2525 39.984C35.6763 39.6309 35.2125 39.1224 34.8892 38.4727L31.0945 30.8593V30.8452ZM50.2931 58.5018C50.2931 58.5018 50.2931 58.3888 50.2931 58.3323C49.9277 55.4367 48.2833 52.866 45.8238 51.3122L35.0298 44.5464C35.0298 44.5464 34.9454 44.4758 34.9173 44.4193C34.8892 44.3769 34.8752 44.3204 34.8752 44.2639C34.8752 44.2357 34.8752 44.2074 34.8892 44.165C34.9033 44.1085 34.9173 44.0803 34.9173 44.0379L35.0438 43.3175L35.2828 42.3429C36.1682 42.809 37.1661 43.0774 38.2061 43.0633H44.9664C46.0486 43.0633 47.0325 42.6254 47.7352 41.905C48.4379 41.1988 48.8877 40.2101 48.8877 39.1224C48.8877 38.0348 48.452 37.0461 47.7352 36.3398C47.0325 35.6336 46.0486 35.1816 44.9664 35.1816H39.19L35.8449 28.444C35.3811 27.5117 34.566 26.7914 33.5821 26.4665C33.3573 26.3959 33.1324 26.3394 32.8935 26.3111L30.5463 24.5596C30.0263 24.1359 29.5484 23.6415 29.1409 23.1047C28.93 22.8222 28.6208 22.6386 28.2695 22.6104C27.9322 22.568 27.5948 22.5539 27.2575 22.5539C25.1774 22.5539 23.1957 23.3166 21.6638 24.6444C20.1318 25.958 19.0496 27.8366 18.7545 30.0401L18.5999 31.2407C18.5015 31.947 18.9934 32.5826 19.6961 32.6815C20.3989 32.7803 21.0313 32.286 21.1297 31.5797L21.2843 30.3791C21.4951 28.8253 22.2541 27.5259 23.3222 26.5936C24.4044 25.6614 25.7958 25.1246 27.2575 25.1246C27.3278 25.1246 27.3981 25.1246 27.4684 25.1246C27.9181 25.6614 28.41 26.1416 28.9441 26.5795L28.9863 26.6077L29.8014 27.2151C29.4782 27.4976 29.1971 27.8225 28.9863 28.1756C28.6208 28.7971 28.4241 29.4892 28.4241 30.2237C28.4241 30.817 28.5646 31.4243 28.8317 31.9752L32.6264 39.5886C32.767 39.8852 32.9497 40.1677 33.1324 40.4219L32.5702 42.7384V42.809L32.4297 43.5294C32.3734 43.7695 32.3313 44.0097 32.3313 44.2498C32.3313 44.7442 32.4578 45.2244 32.6826 45.6481C32.9075 46.0719 33.2589 46.4391 33.6805 46.7075L44.4745 53.4734C46.2735 54.6034 47.4682 56.4678 47.7633 58.5866V74.7597C47.7633 74.7597 47.7633 74.8726 47.7633 74.9291C47.7633 75.028 47.7774 75.1269 47.7774 75.2116C47.7774 75.706 47.6087 76.1721 47.3276 76.5676C46.9762 77.0196 46.4843 77.3304 45.88 77.4151C45.7675 77.4293 45.6692 77.4434 45.5567 77.4434C45.0086 77.4434 44.5026 77.2456 44.095 76.8925C43.7156 76.5535 43.4485 76.1015 43.3642 75.5648L43.4766 60.0132C43.4766 60.0132 43.4766 59.9002 43.4766 59.8437C43.2799 58.3323 42.3663 57.0046 41.0311 56.2983L26.9905 48.8686C26.4845 48.6003 25.8661 48.6991 25.4726 49.1229C25.0791 49.5466 25.0088 50.1681 25.3039 50.6625L30.7431 59.7025C31.4739 60.9172 31.8394 62.2873 31.8394 63.6574C31.8394 64.8722 31.5583 66.0869 30.968 67.2028L26.2456 76.2851C26.0488 76.6665 25.7537 76.9631 25.4164 77.1609C25.0791 77.3586 24.6855 77.4716 24.2779 77.4716C23.9266 77.4716 23.5612 77.3869 23.2238 77.2033L23.1395 77.1609H23.1255C22.746 76.949 22.4649 76.6665 22.2681 76.3134C22.0714 75.9744 21.9589 75.5789 21.9589 75.1834C21.9589 74.8161 22.0432 74.4489 22.24 74.1099L26.9062 65.6349C27.1451 65.1971 27.2575 64.7309 27.2575 64.2507C27.2575 63.7281 27.117 63.2196 26.8359 62.7534L20.8064 52.9084C20.3567 52.188 19.9913 51.4252 19.7102 50.6201C19.4291 49.8291 19.2183 48.9958 19.0918 48.1624C19.0496 47.8799 19.0355 47.5974 19.0355 47.3008C19.0355 46.9759 19.0637 46.6369 19.1199 46.312V46.2697L19.7242 41.8062C19.8226 41.0999 19.3307 40.4643 18.628 40.3654C17.9252 40.2666 17.2928 40.7609 17.1944 41.4672L16.59 45.9306C16.5198 46.3826 16.4776 46.8346 16.4776 47.3008C16.4776 47.7104 16.5057 48.1059 16.5619 48.5155C16.7025 49.5325 16.9555 50.5213 17.2928 51.4817C17.6441 52.4422 18.0798 53.3604 18.6139 54.2361L24.6434 64.0671C24.6434 64.0671 24.6855 64.1659 24.6855 64.2224C24.6855 64.2789 24.6855 64.3213 24.6434 64.3637L19.9772 72.8387C19.5696 73.5732 19.3729 74.3783 19.3729 75.1551C19.3729 76.0026 19.5977 76.8501 20.0334 77.5846C20.4551 78.3191 21.0875 78.9406 21.8746 79.3644L21.973 79.4209H21.987C22.7038 79.8164 23.4768 80 24.2498 80C25.1072 80 25.9505 79.774 26.6813 79.3361C27.4121 78.8983 28.0446 78.2485 28.4662 77.4434L33.1886 68.361C33.9616 66.8779 34.3411 65.2536 34.3411 63.6292C34.3411 61.793 33.8492 59.9708 32.8794 58.3465L29.8014 53.2332L39.7943 58.516C40.3846 58.8267 40.7922 59.4058 40.8906 60.0697L40.7781 75.6213C40.7781 75.6213 40.7781 75.7343 40.7781 75.7908C40.9327 77.0055 41.523 78.0508 42.3663 78.7994C43.2096 79.548 44.3199 79.9859 45.5005 79.9859C45.7254 79.9859 45.9503 79.9717 46.1751 79.9435C47.4541 79.7599 48.5644 79.0677 49.2953 78.1073C49.8996 77.288 50.265 76.2851 50.265 75.1975C50.265 75.028 50.265 74.8585 50.2369 74.689V58.4736L50.2931 58.5018Z" fill="#4A5777"/>
<path d="M33.6449 20.6281C32.9516 19.7882 32.5597 18.7193 32.5597 17.5893C32.5597 17.3144 32.5899 17.0243 32.6351 16.7494C32.8461 15.5889 33.4339 14.6116 34.2629 13.9092C35.0919 13.2067 36.147 12.8097 37.2624 12.8097C37.5337 12.8097 37.82 12.8403 38.0913 12.8861C39.2369 13.0999 40.2015 13.6954 40.8948 14.5353C41.5882 15.3751 41.9801 16.444 41.9801 17.574C41.9801 17.8489 41.9499 18.139 41.9047 18.4139C41.6937 19.5744 41.1059 20.5517 40.2769 21.2541C39.4479 21.9566 38.3928 22.3536 37.2774 22.3536C37.0061 22.3536 36.7197 22.3231 36.4484 22.2772C35.3029 22.0635 34.3383 21.4679 33.6449 20.6281ZM37.2774 25.1328C39.056 25.1328 40.729 24.4914 42.0404 23.392C43.3517 22.2925 44.3012 20.735 44.6178 18.9025C44.6931 18.4597 44.7383 18.0016 44.7383 17.5588C44.7383 15.7569 44.1053 14.0619 43.0201 12.7334C41.9348 11.4049 40.3974 10.4428 38.5887 10.1222C38.1516 10.0458 37.6995 10 37.2624 10C35.4838 10 33.8107 10.6413 32.4994 11.7408C31.1881 12.8403 30.2385 14.3978 29.922 16.2302C29.8466 16.6731 29.8014 17.1312 29.8014 17.5588C29.8014 19.3606 30.4345 21.0556 31.5197 22.3841C32.6049 23.7126 34.1423 24.6747 35.951 24.9953C36.3881 25.0717 36.8403 25.1175 37.2774 25.1175V25.1328Z" fill="#4A5777"/>
</g>
</g>
</svg>
