<svg width="80" height="80" viewBox="0 0 80 80" fill="none" xmlns="http://www.w3.org/2000/svg">
<g id="Layer_1" clip-path="url(#clip0_215_3829)">
<g id="Group">
<path id="Vector" d="M34.4746 11.3869C34.2702 11.8834 34.168 12.3944 34.168 12.9201C34.168 13.4457 34.2702 13.9568 34.4746 14.4533C34.6791 14.9351 34.9857 15.4024 35.3945 15.782C35.4383 15.8258 35.4675 15.8404 35.5114 15.8842L37.1175 17.0815C36.9423 18.4249 36.329 19.6076 35.4237 20.5129C34.3578 21.5496 32.9123 22.1921 31.3061 22.1921C29.6853 22.1921 28.2252 21.535 27.1593 20.4691C26.2248 19.52 25.5969 18.2789 25.4655 16.8771L26.8234 15.8696C26.8234 15.8696 26.8964 15.8112 26.9402 15.7674C27.3491 15.3878 27.6557 14.9351 27.8601 14.4387C28.0646 13.9568 28.1668 13.4311 28.1668 12.9055C28.1668 12.4382 28.0792 11.971 27.9185 11.5329C28.8676 10.8613 30.0358 10.4524 31.3061 10.4524C32.4742 10.4524 33.5547 10.7883 34.46 11.3723L34.4746 11.3869ZM35.9056 25.5943H26.4146L21.0412 20.1479L23.1292 18.6001C23.5235 20.0311 24.2827 21.3014 25.3049 22.3089C26.838 23.8421 28.9552 24.7912 31.2915 24.7912C33.5985 24.7912 35.7012 23.8567 37.2343 22.3527C38.2272 21.3744 38.9865 20.1333 39.3954 18.7607L41.2644 20.1479L35.891 25.5943H35.9056ZM13.974 23.9881L18.7926 29.9893C19.6394 31.0406 20.1213 32.3402 20.1797 33.6835L20.2819 36.2972C20.3111 37.0127 20.9244 37.5675 21.6399 37.5383C22.3553 37.5091 22.9248 36.8959 22.881 36.1804L22.7788 33.5667C22.7058 31.6539 22.0049 29.8287 20.8076 28.3394L15.9891 22.3381L15.9598 22.2943C15.3028 21.535 14.9815 20.6297 14.9815 19.6952C14.9815 19.1258 15.113 18.5563 15.3466 18.0306C15.5802 17.5196 15.9452 17.0523 16.4125 16.6581L23.319 11.9272L23.4067 11.8688C23.6549 11.6644 23.9323 11.5767 24.2389 11.5767C24.4288 11.5767 24.6186 11.6206 24.7938 11.6936C24.969 11.7812 25.1296 11.898 25.261 12.0586C25.4655 12.3068 25.5677 12.5989 25.5677 12.9055C25.5677 13.0807 25.5385 13.2559 25.4655 13.4165C25.4071 13.5626 25.3049 13.7086 25.188 13.8254L19.3182 18.1767C19.3182 18.1767 19.2306 18.2351 19.2014 18.2789C18.9386 18.5271 18.7341 18.8191 18.6027 19.1258C18.4713 19.4324 18.3983 19.7682 18.3983 20.1041C18.3983 20.7319 18.6319 21.3744 19.0992 21.8563L24.9252 27.7845C25.1734 28.0327 25.5093 28.1787 25.8597 28.1787H36.4313C36.7817 28.1787 37.1175 28.0327 37.3658 27.7845L43.1918 21.8709C43.659 21.3744 43.9073 20.7319 43.9073 20.1041C43.9073 19.7682 43.8489 19.4324 43.7174 19.1258C43.586 18.8191 43.3816 18.5125 43.1334 18.2789C43.0896 18.2351 43.0604 18.2059 43.0166 18.1767L39.2055 15.3586L37.1467 13.8254C37.0299 13.694 36.9277 13.5626 36.8693 13.4165C36.7963 13.2559 36.7671 13.0807 36.7671 12.9055C36.7671 12.5989 36.8693 12.3068 37.0737 12.0586C37.2051 11.898 37.3657 11.7812 37.541 11.6936C37.7162 11.606 37.906 11.5767 38.0958 11.5767C38.3879 11.5767 38.6799 11.6644 38.9281 11.8688L39.0157 11.9272L45.9223 16.6581C46.3895 17.0523 46.7546 17.5196 46.9882 18.0306C47.2364 18.5563 47.3532 19.1258 47.3532 19.6952C47.3532 20.6151 47.032 21.535 46.3749 22.2943L46.3311 22.3381L41.5126 28.3394C40.3153 29.8287 39.629 31.6539 39.556 33.5667L38.8697 50.3001V50.3585V75.3856C38.8697 75.9405 38.6507 76.4369 38.2857 76.802C37.9206 77.167 37.4242 77.386 36.8693 77.386C36.3436 77.386 35.8764 77.1962 35.5114 76.8604C35.1463 76.5245 34.9127 76.0865 34.8689 75.5608L32.4888 50.0081C32.4304 49.3364 31.861 48.8254 31.1893 48.8254C30.5176 48.8254 29.9482 49.3364 29.8897 50.0081L27.5097 75.5608C27.4659 76.0865 27.2177 76.5245 26.8672 76.8604C26.5022 77.1962 26.0349 77.386 25.5093 77.386C24.9544 77.386 24.458 77.167 24.0929 76.802C23.7279 76.4369 23.5089 75.9405 23.5089 75.3856V50.3001L23.3628 46.6059C23.3336 45.8904 22.7204 45.3356 22.0049 45.3648C21.2894 45.394 20.7346 46.0073 20.7638 46.7227L20.9098 50.4023V75.4002C20.9098 76.6706 21.4354 77.8387 22.2677 78.6564C23.1 79.4887 24.2535 80.0143 25.5239 79.9997C26.7066 79.9997 27.8163 79.5471 28.634 78.8024C29.4517 78.0577 30.0066 77.0064 30.1234 75.8237L31.2039 64.2008L32.2844 75.8237C32.4012 77.0064 32.9561 78.0577 33.7738 78.8024C34.5915 79.5471 35.6866 79.9997 36.8839 79.9997C38.1542 79.9997 39.3224 79.4887 40.14 78.6418C40.9723 77.8095 41.498 76.656 41.498 75.3856V50.3877L42.1843 33.6689C42.2427 32.3256 42.7245 31.026 43.5714 29.9747L48.3899 23.9735C49.4559 22.747 49.9815 21.2138 49.9815 19.7098C49.9815 18.7607 49.7771 17.8116 49.3682 16.9355C48.9594 16.0594 48.3461 15.2563 47.5576 14.6139L47.47 14.5555L40.5051 9.78075C39.8042 9.2405 38.9573 8.96307 38.125 8.96307C37.5556 8.96307 37.0007 9.07988 36.4751 9.32811C36.4166 9.35731 36.3436 9.40111 36.2852 9.43032C34.8981 8.42281 33.1897 7.83875 31.3499 7.83875C29.4517 7.83875 27.6995 8.46661 26.2832 9.51793C26.1663 9.44492 26.0495 9.38651 25.9327 9.32811C25.4071 9.09448 24.8522 8.96307 24.2827 8.96307C23.4505 8.96307 22.6036 9.22589 21.9027 9.78075L14.9377 14.5555L14.8501 14.6139C14.047 15.2563 13.4484 16.0594 13.0395 16.9355C12.6307 17.8116 12.4263 18.7607 12.4263 19.7098C12.4263 21.2138 12.9519 22.747 14.0178 23.9735L13.974 23.9881Z" fill="#4A5777"/>
<path id="Vector_2" d="M51.6457 29.2738C52.1859 29.7557 53.0036 29.6973 53.4855 29.157C55.9531 26.3681 57.1943 22.8492 57.1943 19.3594C57.1943 15.855 55.9531 12.3506 53.4855 9.56173C53.0036 9.02147 52.1859 8.97767 51.6457 9.44492C51.1054 9.92677 51.0616 10.7445 51.5289 11.2847C53.5731 13.5918 54.5806 16.4683 54.5806 19.3594C54.5806 22.2505 53.5585 25.127 51.5289 27.4341C51.047 27.9743 51.1054 28.792 51.6457 29.2738Z" fill="#4A5777"/>
<path id="Vector_3" d="M59.7494 19.3594C59.7494 23.0098 58.4645 26.6455 55.8946 29.5513C55.4127 30.0915 55.4711 30.9092 56.0114 31.3911C56.5517 31.8729 57.3693 31.8145 57.8512 31.2742C60.8591 27.8721 62.3631 23.6084 62.3631 19.3594C62.3631 15.1103 60.8591 10.832 57.8512 7.44448C57.3693 6.90422 56.5517 6.86042 56.0114 7.32767C55.4711 7.80952 55.4273 8.62721 55.8946 9.16747C58.4645 12.0732 59.7494 15.709 59.7494 19.3594Z" fill="#4A5777"/>
<path id="Vector_4" d="M8.8631 29.1716C9.34495 29.7119 10.1626 29.7557 10.7029 29.2884C11.2432 28.8066 11.287 27.9889 10.8197 27.4486C8.77549 25.1416 7.76798 22.2651 7.76798 19.374C7.76798 16.4829 8.79009 13.6063 10.8197 11.2993C11.3016 10.759 11.2432 9.94135 10.7029 9.4595C10.1626 8.97765 9.34495 9.03606 8.8631 9.57631C6.39543 12.3652 5.1543 15.8842 5.1543 19.374C5.1543 22.8783 6.39543 26.3827 8.8631 29.1716Z" fill="#4A5777"/>
<path id="Vector_5" d="M6.35168 31.3911C6.89194 30.9092 6.93575 30.0915 6.4685 29.5513C3.89862 26.6456 2.61368 23.0098 2.61368 19.3594C2.61368 15.709 3.89862 12.0732 6.4685 9.16749C6.95035 8.62724 6.89194 7.80955 6.35168 7.3277C5.81142 6.84584 4.99374 6.90425 4.51189 7.44451C1.50396 10.8467 0 15.1103 0 19.3594C0 23.6084 1.50396 27.8867 4.51189 31.2743C4.99374 31.8145 5.81142 31.8583 6.35168 31.3911Z" fill="#4A5777"/>
</g>
</g>
<defs>
<clipPath id="clip0_215_3829">
<rect width="80" height="80" fill="white"/>
</clipPath>
</defs>
</svg>
