<svg width="80" height="80" viewBox="0 0 80 80" fill="none" xmlns="http://www.w3.org/2000/svg">
<g id="help-icon-5">
<g id="Vector">
<path d="M52.5338 25.7797C52.3267 25.3211 52.0308 24.892 51.6313 24.537C50.9508 23.9304 50.078 23.6198 49.2347 23.6345C48.7465 23.6345 48.2435 23.7381 47.7849 23.9452C47.3263 24.1523 46.8972 24.4482 46.5422 24.8477L42.7993 29.064C42.5034 29.4042 42.104 29.6409 41.6601 29.7297L34.0856 31.3866C33.7749 31.4606 33.4642 31.4902 33.1239 31.505C32.7541 31.505 32.4138 31.6973 32.1771 31.9784C31.5262 32.7773 30.7125 33.4282 29.7805 33.8868C28.8485 34.3455 27.8129 34.597 26.7033 34.597C25.6086 34.597 24.573 34.3455 23.6409 33.9016C22.7089 33.4578 21.8952 32.8069 21.2591 32.0228C21.0224 31.7269 20.6525 31.5642 20.2679 31.5494C19.6317 31.5494 18.9808 31.4754 18.3447 31.3275L11.3766 29.8037C10.8293 29.6853 10.3411 29.3894 9.97121 28.9752L6.33187 24.8773C5.97681 24.4778 5.54778 24.1671 5.08916 23.9748C4.63055 23.7677 4.12755 23.6641 3.63934 23.6641C2.79608 23.6641 1.92323 23.96 1.2427 24.5814C0.843263 24.9364 0.547381 25.3655 0.340264 25.8241C0.103559 26.2975 0 26.8005 0 27.3035C0 28.1172 0.281088 28.9604 0.858057 29.6262L4.85246 34.3603C6.15434 35.8988 7.88524 36.9936 9.83806 37.4966L16.7173 39.2719C17.5162 39.479 18.108 40.1595 18.2115 40.988L19.3507 50.8852C19.3507 51.0184 19.3655 51.1367 19.3655 51.2699C19.3655 51.6545 19.3063 52.0392 19.1731 52.409L15.5782 62.7205C15.1787 63.8745 14.9716 65.0876 14.9716 66.3007C14.9716 66.8924 15.016 67.4694 15.1196 68.0612L16.525 76.6122C16.6877 77.6034 17.2055 78.4614 17.9156 79.0532C18.6257 79.6449 19.543 80 20.5046 80C20.8301 80 21.1555 79.9556 21.481 79.8816C22.3834 79.6597 23.1675 79.1272 23.7001 78.4318C24.2327 77.7365 24.5434 76.8785 24.5434 75.9612C24.5434 75.7837 24.5434 75.5766 24.499 75.3695L23.3451 67.5434C23.3155 67.3511 23.3007 67.1735 23.3007 66.996C23.3007 66.5374 23.3894 66.0788 23.5522 65.6497L26.437 58.1491L29.2183 65.3834C29.4254 65.916 29.529 66.4782 29.529 67.0404C29.529 67.2623 29.5142 67.499 29.4846 67.7209L28.3603 75.3251C28.3307 75.5174 28.3159 75.7245 28.3159 75.9168C28.3159 76.8341 28.6265 77.7069 29.1591 78.3874C29.6917 79.0828 30.461 79.6006 31.3782 79.8373C31.7037 79.926 32.0292 79.9556 32.3694 79.9556C33.3311 79.9556 34.2483 79.6006 34.9584 79.0088C35.6685 78.417 36.1863 77.559 36.3491 76.5678L36.9852 72.6621C37.1036 71.9668 36.6301 71.3011 35.92 71.1827C35.2247 71.0644 34.559 71.5378 34.4406 72.2479L33.8045 76.1535C33.7453 76.5234 33.553 76.8193 33.3015 77.0412C33.0352 77.2631 32.7097 77.3814 32.3547 77.3814C32.2363 77.3814 32.118 77.3815 31.9996 77.3371C31.6593 77.2483 31.393 77.0708 31.1859 76.8045C30.9936 76.553 30.8752 76.2275 30.8752 75.902C30.8752 75.8281 30.8752 75.7541 30.89 75.6801L32.0144 68.076C32.0588 67.7209 32.0884 67.3806 32.0884 67.0256C32.0884 66.1527 31.9256 65.2651 31.6002 64.4366L27.6205 54.0956C27.4282 53.5926 26.9548 53.2671 26.4222 53.2671C25.8896 53.2671 25.4162 53.5926 25.2239 54.0956L21.1407 64.7177C20.8597 65.4426 20.7265 66.2119 20.7265 66.9812C20.7265 67.2919 20.7561 67.6026 20.8005 67.9132L21.9544 75.7393C21.9544 75.7393 21.9544 75.8725 21.9544 75.9612C21.9544 76.2867 21.8361 76.6122 21.6437 76.8637C21.4514 77.1152 21.1703 77.3075 20.8301 77.3962C20.7117 77.4258 20.5934 77.4406 20.475 77.4406C20.1347 77.4406 19.7945 77.3075 19.5282 77.1004C19.2619 76.8784 19.0844 76.5826 19.0252 76.2127L17.6197 67.6765C17.5458 67.2327 17.5162 66.7889 17.5162 66.3303C17.5162 65.3982 17.6641 64.481 17.9748 63.5934L21.5846 53.2819C21.8065 52.6457 21.9248 51.9652 21.9248 51.2995C21.9248 51.0776 21.9248 50.8409 21.8804 50.619L20.7413 40.7069C20.5194 38.8281 19.1731 37.2747 17.3387 36.8013L10.4594 35.026C9.02439 34.6561 7.7521 33.8573 6.80528 32.7181L2.81088 27.984C2.64814 27.7917 2.57417 27.555 2.57417 27.3183C2.57417 27.1703 2.60376 27.0372 2.66293 26.904C2.72211 26.7709 2.81088 26.6525 2.92923 26.549C3.13635 26.3715 3.37305 26.2827 3.60976 26.2827C3.7577 26.2827 3.89084 26.3123 4.02399 26.3715C4.15714 26.4306 4.27549 26.5194 4.37905 26.6377L8.01839 30.7357C8.7433 31.5642 9.71971 32.1263 10.7997 32.3631L17.7677 33.8868C18.389 34.02 19.0104 34.1088 19.6465 34.1383C20.4602 35.0112 21.4218 35.7213 22.5018 36.2391C23.7593 36.8457 25.1795 37.1859 26.6737 37.1859C28.1827 37.1859 29.6178 36.8309 30.8752 36.2243C31.97 35.6917 32.9612 34.952 33.7749 34.0496C34.056 34.02 34.3371 33.9756 34.6181 33.9164L42.1927 32.2595C43.1691 32.0524 44.0568 31.5346 44.7077 30.7801L48.4506 26.5638C48.5542 26.4454 48.6725 26.3567 48.8057 26.2975C48.9388 26.2383 49.0868 26.2087 49.2199 26.2087C49.4714 26.2087 49.7081 26.2975 49.9004 26.475C50.0188 26.5786 50.1076 26.6969 50.1667 26.8301C50.2259 26.9632 50.2555 27.1112 50.2555 27.2443C50.2555 27.481 50.1815 27.7177 50.0188 27.91L46.3055 32.3187C45.1811 33.6501 43.6721 34.597 41.9856 35.0408L35.5058 36.7125C33.6713 37.1859 32.3251 38.7393 32.1032 40.6182L30.964 50.5154C30.9344 50.7373 30.9196 50.974 30.9196 51.1959C30.9196 51.8764 31.038 52.5422 31.2599 53.1783L34.411 62.2027C34.4554 62.3211 34.485 62.4246 34.5146 62.5134C34.7365 63.1939 35.4466 63.5638 36.1271 63.3419C36.8077 63.12 37.1775 62.4098 36.9556 61.7293C36.9112 61.5962 36.8668 61.4778 36.8373 61.3595L33.6861 52.3203C33.553 51.9504 33.4938 51.5658 33.4938 51.1811C33.4938 51.048 33.4938 50.9148 33.5086 50.7965L34.6477 40.8992C34.7365 40.0708 35.3431 39.3902 36.1419 39.1831L42.6217 37.5114C44.8261 36.9492 46.8085 35.7065 48.2731 33.9608L51.9864 29.5522C52.5486 28.8864 52.8445 28.0432 52.8297 27.2295C52.8297 26.7265 52.7261 26.2383 52.519 25.7797H52.5338Z" fill="#4A5777"/>
<path d="M27.7981 12.465L29.3663 9.97961C29.4846 9.78729 29.6621 9.69852 29.8693 9.69852C29.9284 9.69852 29.9876 9.69852 30.0468 9.72811C30.1947 9.77249 30.2835 9.84646 30.3575 9.95002C30.4314 10.0536 30.4758 10.1719 30.4758 10.3199V13.397C30.4758 13.8852 30.7421 14.3291 31.1859 14.5362C31.615 14.7581 32.1327 14.7137 32.5322 14.4326L34.2927 13.1455C34.3962 13.0716 34.5294 13.0272 34.6477 13.0272C34.7661 13.0272 34.8844 13.0568 34.988 13.1455C35.1507 13.2639 35.2395 13.4414 35.2395 13.6337C35.2395 13.6929 35.2395 13.7521 35.2099 13.8113L34.2779 16.8884C34.1447 17.3323 34.2631 17.8205 34.5886 18.1459C34.914 18.4862 35.3874 18.6194 35.8461 18.501L38.6569 17.7613C38.6569 17.7613 38.7605 17.7317 38.8197 17.7317C38.9232 17.7317 38.9972 17.7613 39.086 17.7909C39.1599 17.8353 39.2339 17.8944 39.3079 17.9832C39.3818 18.1016 39.4114 18.2199 39.4114 18.3235C39.4114 18.427 39.3818 18.5306 39.3079 18.6489L33.6713 24.1967C33.4494 22.6581 32.7245 21.2823 31.6741 20.2319C30.4018 18.9596 28.6265 18.1607 26.6737 18.1607C24.7209 18.1607 22.9456 18.9596 21.6733 20.2319C21.1407 20.7645 20.6821 21.4006 20.3419 22.0812L14.7941 9.95002C14.7941 9.95002 14.7645 9.81687 14.7645 9.7577C14.7645 9.66893 14.7793 9.58017 14.8237 9.4914C14.8681 9.41743 14.9272 9.34346 15.016 9.26949C15.1343 9.19552 15.2527 9.15114 15.3563 9.15114C15.4894 9.15114 15.6078 9.19552 15.7409 9.29908L20.6969 13.4266C21.052 13.7225 21.5402 13.7965 21.9692 13.6485C22.3982 13.4858 22.7089 13.1012 22.7829 12.6573L23.3746 9.06237C23.4042 8.91443 23.4634 8.79608 23.567 8.70732C23.6705 8.61855 23.7889 8.55938 23.9368 8.55938H23.9664C24.1144 8.55938 24.2327 8.60376 24.3363 8.67773C24.4398 8.7517 24.5138 8.85526 24.5582 8.9884L25.4754 12.1247C25.6234 12.613 26.0376 12.968 26.5258 13.042C27.0288 13.116 27.517 12.8792 27.7981 12.4502V12.465ZM26.6737 29.7149C25.431 29.7149 24.3067 29.2119 23.493 28.3982C22.6793 27.5846 22.1763 26.4602 22.1763 25.2175C22.1763 23.9748 22.6793 22.8505 23.493 22.0368C24.3067 21.2231 25.431 20.7201 26.6737 20.7201C27.9164 20.7201 29.0408 21.2231 29.8545 22.0368C30.6681 22.8505 31.1711 23.9748 31.1711 25.2175C31.1711 26.4602 30.6681 27.5846 29.8545 28.3982C29.0408 29.2119 27.9164 29.7149 26.6737 29.7149ZM27.0288 8.27829C26.8365 7.59776 26.4222 7.02079 25.8748 6.62135C25.3423 6.22191 24.6765 6 23.9812 6C23.922 6 23.8629 6 23.7889 6C23.0492 6.04438 22.3687 6.34026 21.8509 6.81367C21.3331 7.28709 20.9632 7.92323 20.8449 8.64814L20.6082 10.024L17.3683 7.33147C16.7913 6.84326 16.0664 6.59176 15.3415 6.59176C14.7053 6.59176 14.0544 6.78409 13.5218 7.16873C13.0928 7.46461 12.7525 7.86405 12.5306 8.30788C12.2939 8.7517 12.1755 9.2547 12.1755 9.7577C12.1755 10.1275 12.2347 10.4974 12.3679 10.8525L12.4122 10.9412L19.9276 27.3774C20.2679 28.4574 20.8744 29.4338 21.6585 30.2179C22.9308 31.4902 24.7061 32.2891 26.6589 32.2891C28.6118 32.2891 30.387 31.4902 31.6593 30.2179C32.1475 29.7297 32.5766 29.1675 32.902 28.5462L41.1571 20.4094C41.1571 20.4094 41.2311 20.3355 41.2607 20.2911L41.3051 20.2319L41.3347 20.1875C41.7341 19.6401 41.9412 18.9892 41.9412 18.3383C41.9412 17.7169 41.7489 17.0808 41.379 16.5482C41.0832 16.1192 40.6837 15.7641 40.2399 15.5274C39.7961 15.2907 39.2931 15.1723 38.7753 15.1723C38.509 15.1723 38.2279 15.2019 37.9468 15.2759L37.3551 15.4238L37.6213 14.5362C37.7101 14.2403 37.7545 13.9296 37.7545 13.619C37.7545 12.613 37.2663 11.6365 36.4082 11.03C35.8609 10.6453 35.2247 10.453 34.5738 10.453C34.0264 10.453 33.479 10.601 32.9908 10.882V10.3051C32.9908 9.60976 32.7541 8.92923 32.3547 8.39664C31.9552 7.86405 31.3782 7.44982 30.6977 7.2575C30.4018 7.16873 30.106 7.12435 29.8101 7.12435C28.7449 7.12435 27.7241 7.67173 27.1471 8.60376L27.1028 8.67773L26.9844 8.27829H27.0288Z" fill="#4A5777"/>
</g>
</g>
</svg>
