<svg width="183" height="56" viewBox="0 0 183 56" fill="none" xmlns="http://www.w3.org/2000/svg">
<path d="M46.674 30.1551C46.4058 29.7701 46.031 29.6439 45.6478 29.3734C43.1382 27.6064 42.8342 25.7917 42.8796 24.4267C43.3051 24.1414 43.7379 23.7289 44.1676 23.1508C44.1676 23.1508 43.7358 23.5083 42.9239 23.7724C42.945 23.5486 42.9662 23.3428 42.9778 23.1593C43.0042 22.7181 43.0686 22.0796 43.2048 21.7572C43.929 20.0422 44.0937 18.8416 43.9966 17.3249C43.8646 15.2525 43.55 13.3826 42.9303 11.867C44.0451 11.5128 44.2151 10.1902 44.2151 10.1902C43.6714 10.677 42.9757 10.4787 42.3939 10.134C42.6484 9.92186 42.8226 9.57292 42.8226 9.57292C42.5945 9.84338 42.1543 9.79353 41.7077 9.63656C41.4216 9.39156 41.2379 9.18792 41.2379 9.18792C39.2151 6.74216 36.4543 4.73655 33.8075 3.60276C19.0142 -2.73756 12.8887 0.866389 10.034 2.59518C9.58634 2.8667 9.19888 3.13715 8.77024 3.43943C8.21492 3.83079 7.40093 4.43216 6.4972 5.26579C6.07173 4.24973 7.67543 3.62185 7.67543 3.62185C7.67543 3.62185 5.56391 3.3567 5.414 4.87231C5.38866 5.12791 5.46151 5.35488 5.59981 5.5564C5.57658 5.55216 5.55441 5.54685 5.53013 5.54367C3.93383 5.2711 4.30017 6.1408 4.30017 6.1408C4.30017 6.1408 4.6264 5.42382 5.53013 5.94458C5.58925 5.97852 5.64415 6.01246 5.69483 6.0464C3.27609 8.53777 0.577582 12.601 0.444557 18.604C0.319978 24.2083 1.15191 26.8693 3.11034 29.9705C4.4976 32.1681 5.79301 33.8524 7.41465 35.4189C7.55085 35.5504 7.69021 35.6819 7.83062 35.8113C8.81459 36.7913 11.1014 39.4068 9.79538 41.4188C9.79538 41.4188 11.3326 40.4324 11.7749 39.0716C11.8077 39.078 11.7981 39.0759 11.8309 39.0822C11.8161 39.6263 11.776 40.2054 11.6947 40.7792C11.2787 41.2066 10.7593 41.5121 10.11 41.6128C10.11 41.6128 10.7086 41.7794 11.4941 41.8239C11.341 42.4391 11.1246 43.0182 10.8237 43.505C10.8237 43.505 11.4022 42.9577 11.9576 41.8335C12.6449 41.8228 13.404 41.6934 14.0142 41.2894C15.7372 43.9897 7.85068 56 7.85068 56L14.3035 52.1309C14.4196 52.0609 14.5389 51.9983 14.6592 51.9347C15.866 51.2973 16.4751 50.891 17.6164 50.3809C19.8472 49.385 21.0022 48.9533 21.2904 48.8441C22.9554 48.2173 26.2894 46.8406 30.3393 46.3866C31.5672 46.2488 38.7051 46.2159 40.9074 45.8754C41.5694 45.7736 42.1807 45.4554 42.6389 44.9654C44.8612 42.5865 43.3547 40.6201 43.6017 40.075C43.777 39.6889 43.8445 39.568 44.2774 39.4365C44.7715 39.2869 45.0713 38.7704 44.9404 38.2698C44.8739 38.0174 44.4073 37.7968 44.4073 37.7968C45.3363 37.0289 45.6298 36.3353 45.2202 35.8962C44.8106 35.4571 44.6628 35.0424 44.5804 34.6033C44.4981 34.1642 44.5825 34.0634 46.2211 32.7186C47.1638 31.9454 47.1037 30.7702 46.674 30.153V30.1551ZM33.0885 25.9307C33.0885 25.9307 31.8543 26.3751 31.5819 24.729C31.5228 24.3737 31.3719 24.0311 31.1142 23.7798C30.7912 23.4648 30.3161 23.2537 29.7903 23.8646C29.9825 23.8657 28.0314 31.1107 27.8815 30.854L20.0088 28.5122C20.0088 28.5122 19.7765 27.9766 21.8901 26.9521C22.0073 26.8958 22.1182 26.8216 22.2047 26.724C22.4412 26.4557 22.8382 25.8416 22.6672 24.8616C22.6672 24.8616 22.1688 22.033 19.2423 23.6324C19.2423 23.6324 18.0134 23.9749 18.5212 25.8989C18.5212 25.8989 18.5962 26.8333 18.5349 26.9192C18.5349 26.9192 18.1538 27.9861 15.98 27.3148L12.4052 25.6772C12.4052 25.6772 14.9559 24.343 14.8334 20.7857C14.8334 20.7857 15.525 19.6498 16.7042 20.0199C16.7042 20.0199 17.8782 20.1896 17.9226 21.0126C17.9226 21.0126 18.1253 22.4402 19.9264 21.9778C19.9264 21.9778 21.3738 21.8675 21.5977 19.601C21.5977 19.601 21.5871 16.7045 18.3544 18.1893C18.3544 18.1893 17.6713 18.3357 17.0484 17.9485C17.0484 17.9485 16.472 17.5476 16.377 16.8784C16.377 16.8784 17.0716 16.8826 17.9532 11.1225C17.9532 11.1225 20.6728 11.6231 24.0027 12.5628C24.5242 12.8194 24.8473 13.0019 24.8473 13.0019C25.5187 13.546 25.3055 14.0413 24.9824 14.3743C24.7322 14.6331 24.3912 14.7848 24.0375 14.8441C22.399 15.1167 22.8414 16.3576 22.8414 16.3576C23.6342 20.4134 26.318 18.9848 27.3441 18.2657C27.6978 18.0175 27.9903 17.6484 28.0167 17.2157C28.061 16.4881 27.5437 15.9885 27.5437 15.9885C27.417 15.9249 27.3368 15.7722 27.247 15.699C26.9092 15.4254 26.7075 15.0043 26.8479 14.5928C27.0074 14.1282 27.4107 13.8981 27.9501 13.8228C29.6774 14.4496 31.3581 15.1761 32.7359 16.0002C32.7359 16.0002 29.8495 21.4899 31.3307 21.9025C31.7477 22.0192 32.1594 21.841 32.4318 21.5016C32.5047 21.4114 32.6567 21.3308 32.7201 21.2036C32.7201 21.2036 33.2173 20.6849 33.9416 20.7284C34.3723 20.7549 34.7397 21.0487 34.9868 21.404C35.7026 22.4339 37.1247 25.131 33.0875 25.9275L33.0885 25.9307Z" fill="#00988F"/>
<path d="M173.177 32.5C171.644 32.5 170.426 32.0924 169.521 31.2773C168.617 30.4526 168.165 29.3342 168.165 27.9218C168.165 26.955 168.427 26.1067 168.95 25.3768C169.483 24.6469 170.264 24.0735 171.292 23.6564C172.33 23.2394 173.605 23.0308 175.118 23.0308H177.16V21.8934C177.16 21.1541 176.941 20.5569 176.503 20.1019C176.075 19.6375 175.428 19.4052 174.562 19.4052C174.114 19.4052 173.714 19.4621 173.362 19.5759C173.01 19.6801 172.686 19.8318 172.391 20.0308L172.063 22.064H169.065L169.007 18.0687C169.817 17.6138 170.692 17.2441 171.635 16.9597C172.577 16.6754 173.629 16.5332 174.79 16.5332C176.808 16.5332 178.402 17.0024 179.573 17.9408C180.744 18.8697 181.329 20.2014 181.329 21.936V28.2773C181.329 28.4858 181.329 28.6943 181.329 28.9029C181.339 29.1019 181.358 29.2962 181.387 29.4858L183 29.7133V32.2015H177.831C177.727 31.936 177.622 31.6517 177.517 31.3484C177.412 31.0451 177.336 30.7417 177.289 30.4384C176.794 31.064 176.208 31.5664 175.533 31.9455C174.866 32.3152 174.081 32.5 173.177 32.5ZM174.29 29.4289C174.871 29.4289 175.423 29.301 175.947 29.0451C176.47 28.7796 176.875 28.4337 177.16 28.0071V25.5759H175.104C174.19 25.5759 173.496 25.7844 173.02 26.2015C172.553 26.6185 172.32 27.1209 172.32 27.7086C172.32 28.2583 172.491 28.6849 172.834 28.9882C173.186 29.282 173.672 29.4289 174.29 29.4289Z" fill="#00988F"/>
<path d="M149.017 32.2015V29.7133L151.016 29.2868V19.7465L148.803 19.3199V16.8176H154.9L155.085 19.0214C155.599 18.2346 156.232 17.6233 156.984 17.1872C157.746 16.7512 158.612 16.5332 159.583 16.5332C161.115 16.5332 162.315 17.0214 163.181 17.9977C164.047 18.974 164.48 20.5048 164.48 22.5901V29.2868L166.479 29.7133V32.2015H158.512V29.7133L160.297 29.2868V22.6043C160.297 21.5711 160.092 20.8413 159.683 20.4147C159.274 19.9787 158.664 19.7607 157.855 19.7607C157.256 19.7607 156.732 19.8887 156.285 20.1446C155.847 20.391 155.48 20.7465 155.185 21.2109V29.2868L156.87 29.7133V32.2015H149.017Z" fill="#00988F"/>
<path d="M130.183 32.2015V29.7133L132.182 29.2868V19.7465L129.969 19.3199V16.8176H136.066L136.252 19.0214C136.766 18.2346 137.399 17.6233 138.151 17.1872C138.912 16.7512 139.778 16.5332 140.749 16.5332C142.282 16.5332 143.481 17.0214 144.347 17.9977C145.213 18.974 145.647 20.5048 145.647 22.5901V29.2868L147.645 29.7133V32.2015H139.678V29.7133L141.463 29.2868V22.6043C141.463 21.5711 141.258 20.8413 140.849 20.4147C140.44 19.9787 139.831 19.7607 139.021 19.7607C138.422 19.7607 137.898 19.8887 137.451 20.1446C137.013 20.391 136.647 20.7465 136.352 21.2109V29.2868L138.036 29.7133V32.2015H130.183Z" fill="#00988F"/>
<path d="M108.565 32.2015V29.7133L110.05 29.5L116.661 11.5H120.93L127.498 29.5L128.983 29.7133V32.2015H121.901V29.7133L123.343 29.4574L122.429 26.6138H115.119L114.205 29.4574L115.647 29.7133V32.2015H108.565ZM116.104 23.5569H121.444L119.017 16.4621L118.817 15.8365H118.731L118.517 16.5048L116.104 23.5569Z" fill="#00988F"/>
<path d="M94.8849 32.2015V28.5616H99.0399V32.2015H94.8849Z" fill="#00988F"/>
<path d="M83.9326 32.2015V29.7133L85.9316 29.2868V19.7465L83.7185 19.3199V16.8176H89.8152L89.9723 18.7228L90.0008 19.064C90.3816 18.2299 90.8528 17.5996 91.4144 17.173C91.976 16.7465 92.647 16.5332 93.4276 16.5332C93.6751 16.5332 93.9463 16.5569 94.2414 16.6043C94.5365 16.6422 94.7983 16.6943 95.0267 16.7607L94.5841 20.5853L92.5138 20.4716C91.9236 20.4432 91.4429 20.5427 91.0717 20.7702C90.71 20.9977 90.3863 21.3247 90.1008 21.7512V29.2868L92.0997 29.7133V32.2015H83.9326Z" fill="#00988F"/>
<path d="M63 32.2015V29.7133L65.2416 29.2441V14.4858L63 14.0024V11.5H72.1237C73.9798 11.5 75.617 11.936 77.0353 12.8081C78.4536 13.6706 79.5578 14.8697 80.3478 16.4052C81.1474 17.9313 81.5472 19.6849 81.5472 21.6659V22.0498C81.5472 24.0119 81.1522 25.7607 80.3621 27.2962C79.5816 28.8223 78.4869 30.0214 77.0782 30.8934C75.6694 31.7654 74.0369 32.2015 72.1808 32.2015H63ZM69.4108 29.0308H71.9666C73.1184 29.0308 74.094 28.7323 74.8936 28.1351C75.6932 27.5285 76.3024 26.6991 76.7212 25.6469C77.1496 24.5948 77.3637 23.3958 77.3637 22.0498V21.6517C77.3637 20.2868 77.1496 19.083 76.7212 18.0403C76.3024 16.9882 75.6932 16.1683 74.8936 15.5806C74.094 14.9834 73.1184 14.6849 71.9666 14.6849H69.4108V29.0308Z" fill="#00988F"/>
<path d="M182.111 42.8175C181.79 42.8175 181.535 42.724 181.346 42.537C181.159 42.3474 181.065 42.0456 181.065 41.6317V38.9998H180.38V38.4149H181.065V37.3693H181.854V38.4149H182.796V38.9998H181.854V41.6317C181.854 41.84 181.896 41.9936 181.978 42.0924C182.061 42.1912 182.172 42.2406 182.311 42.2406C182.404 42.2406 182.509 42.2326 182.623 42.2166C182.738 42.1979 182.828 42.1818 182.892 42.1685L183 42.6853C182.885 42.72 182.744 42.7507 182.575 42.7774C182.41 42.8041 182.255 42.8175 182.111 42.8175Z" fill="#4A5777"/>
<path d="M178.105 42.8335C177.814 42.8335 177.542 42.8041 177.288 42.7454C177.034 42.6866 176.764 42.5958 176.479 42.4729L176.471 41.4434H177.068L177.216 42.0643C177.365 42.1258 177.51 42.1712 177.648 42.2005C177.79 42.2272 177.942 42.2406 178.105 42.2406C178.426 42.2406 178.655 42.1792 178.794 42.0563C178.933 41.9335 179.002 41.7812 179.002 41.5996C179.002 41.4287 178.932 41.2845 178.79 41.167C178.651 41.0468 178.398 40.9453 178.029 40.8625C177.506 40.7424 177.12 40.5821 176.871 40.3818C176.626 40.1789 176.503 39.9091 176.503 39.5726C176.503 39.3376 176.571 39.1279 176.707 38.9437C176.843 38.7567 177.033 38.6085 177.276 38.499C177.519 38.3895 177.802 38.3348 178.125 38.3348C178.454 38.3348 178.734 38.3722 178.966 38.4469C179.201 38.5217 179.406 38.6219 179.579 38.7474L179.619 39.7369H179.026L178.898 39.16C178.805 39.0906 178.694 39.0371 178.566 38.9998C178.438 38.9624 178.291 38.9437 178.125 38.9437C177.879 38.9437 177.679 39.0011 177.524 39.1159C177.372 39.2308 177.296 39.375 177.296 39.5486C177.296 39.6501 177.317 39.7382 177.36 39.813C177.405 39.8878 177.491 39.9559 177.616 40.0173C177.742 40.076 177.926 40.1348 178.169 40.1935C178.773 40.3351 179.193 40.5154 179.431 40.7343C179.671 40.9533 179.792 41.2231 179.792 41.5436C179.792 41.9094 179.655 42.2166 179.383 42.4649C179.113 42.7106 178.687 42.8335 178.105 42.8335Z" fill="#4A5777"/>
<path d="M173.575 42.7494V42.2446L174.228 42.1324V39.0358L173.575 38.9236V38.4149H175.017V42.1324L175.67 42.2446V42.7494H173.575ZM174.188 37.3453V36.5H175.017V37.3453H174.188Z" fill="#4A5777"/>
<path d="M170.731 44.5C170.523 44.5 170.297 44.4706 170.054 44.4118C169.811 44.3558 169.597 44.2783 169.413 44.1795L169.617 43.5666C169.764 43.644 169.938 43.7081 170.138 43.7589C170.338 43.8096 170.533 43.835 170.723 43.835C171.075 43.835 171.333 43.7362 171.496 43.5385C171.662 43.3409 171.744 43.0592 171.744 42.6933V42.2807C171.603 42.4623 171.433 42.5998 171.236 42.6933C171.038 42.7867 170.811 42.8335 170.555 42.8335C170.202 42.8335 169.898 42.7467 169.641 42.5731C169.385 42.3968 169.187 42.1525 169.048 41.84C168.912 41.5249 168.844 41.1603 168.844 40.7464V40.6622C168.844 40.1975 168.912 39.7903 169.048 39.4404C169.187 39.0906 169.385 38.8195 169.641 38.6272C169.898 38.4322 170.205 38.3348 170.563 38.3348C170.835 38.3348 171.074 38.3882 171.28 38.495C171.485 38.6018 171.658 38.7567 171.796 38.9597L171.869 38.4149H172.534V42.6933C172.534 43.0672 172.463 43.389 172.321 43.6587C172.182 43.9285 171.978 44.1354 171.708 44.2796C171.441 44.4265 171.115 44.5 170.731 44.5ZM170.751 42.1925C170.989 42.1925 171.188 42.1391 171.348 42.0323C171.508 41.9228 171.64 41.7692 171.744 41.5716V39.5766C171.643 39.3923 171.511 39.2468 171.348 39.14C171.185 39.0305 170.989 38.9757 170.759 38.9757C170.508 38.9757 170.298 39.0478 170.13 39.192C169.964 39.3363 169.84 39.5352 169.757 39.7889C169.675 40.04 169.633 40.3311 169.633 40.6622V40.7464C169.633 41.1817 169.725 41.5315 169.91 41.7959C170.094 42.0603 170.374 42.1925 170.751 42.1925ZM172.413 39.0598L172.105 38.4149H173.07V38.9196L172.413 39.0598Z" fill="#4A5777"/>
<path d="M166.004 42.8335C165.604 42.8335 165.258 42.74 164.967 42.5531C164.678 42.3634 164.455 42.1031 164.298 41.7719C164.14 41.4381 164.061 41.0575 164.061 40.6302V40.5421C164.061 40.1148 164.14 39.7355 164.298 39.4044C164.455 39.0705 164.678 38.8088 164.967 38.6192C165.258 38.4296 165.601 38.3348 165.996 38.3348C166.397 38.3348 166.741 38.4296 167.03 38.6192C167.321 38.8088 167.545 39.0692 167.703 39.4004C167.86 39.7315 167.939 40.1121 167.939 40.5421V40.6302C167.939 41.0602 167.86 41.4421 167.703 41.7759C167.545 42.1071 167.322 42.3661 167.034 42.5531C166.745 42.74 166.402 42.8335 166.004 42.8335ZM166.004 42.2166C166.255 42.2166 166.465 42.1485 166.633 42.0123C166.804 41.8734 166.932 41.6851 167.018 41.4474C167.106 41.2071 167.15 40.9346 167.15 40.6302V40.5421C167.15 40.2376 167.106 39.9665 167.018 39.7288C166.932 39.4885 166.804 39.3002 166.633 39.164C166.462 39.0251 166.25 38.9557 165.996 38.9557C165.745 38.9557 165.534 39.0251 165.363 39.164C165.192 39.3002 165.064 39.4885 164.979 39.7288C164.893 39.9665 164.85 40.2376 164.85 40.5421V40.6302C164.85 40.9346 164.893 41.2071 164.979 41.4474C165.064 41.6851 165.192 41.8734 165.363 42.0123C165.537 42.1485 165.75 42.2166 166.004 42.2166Z" fill="#4A5777"/>
<path d="M161.33 42.7494V42.2446L161.983 42.1324V37.1209L161.33 37.0088V36.5H162.772V42.1324L163.425 42.2446V42.7494H161.33Z" fill="#4A5777"/>
<path d="M158.77 42.8335C158.37 42.8335 158.024 42.74 157.733 42.5531C157.444 42.3634 157.221 42.1031 157.064 41.7719C156.906 41.4381 156.827 41.0575 156.827 40.6302V40.5421C156.827 40.1148 156.906 39.7355 157.064 39.4044C157.221 39.0705 157.444 38.8088 157.733 38.6192C158.024 38.4296 158.367 38.3348 158.762 38.3348C159.163 38.3348 159.507 38.4296 159.796 38.6192C160.087 38.8088 160.311 39.0692 160.469 39.4004C160.626 39.7315 160.705 40.1121 160.705 40.5421V40.6302C160.705 41.0602 160.626 41.4421 160.469 41.7759C160.311 42.1071 160.088 42.3661 159.8 42.5531C159.511 42.74 159.168 42.8335 158.77 42.8335ZM158.77 42.2166C159.021 42.2166 159.231 42.1485 159.399 42.0123C159.57 41.8734 159.698 41.6851 159.784 41.4474C159.872 41.2071 159.916 40.9346 159.916 40.6302V40.5421C159.916 40.2376 159.872 39.9665 159.784 39.7288C159.698 39.4885 159.57 39.3002 159.399 39.164C159.228 39.0251 159.016 38.9557 158.762 38.9557C158.511 38.9557 158.3 39.0251 158.129 39.164C157.958 39.3002 157.83 39.4885 157.745 39.7288C157.659 39.9665 157.616 40.2376 157.616 40.5421V40.6302C157.616 40.9346 157.659 41.2071 157.745 41.4474C157.83 41.6851 157.958 41.8734 158.129 42.0123C158.303 42.1485 158.516 42.2166 158.77 42.2166Z" fill="#4A5777"/>
<path d="M151.367 42.7494V42.2446L152.02 42.1324V37.1209L151.367 37.0088V36.5H152.81V38.9917C152.959 38.7834 153.142 38.6219 153.358 38.507C153.575 38.3922 153.815 38.3348 154.08 38.3348C154.544 38.3348 154.905 38.4736 155.161 38.7514C155.418 39.0291 155.546 39.4564 155.546 40.0333V42.1324L156.199 42.2446V42.7494H154.104V42.2446L154.757 42.1324V40.0253C154.757 39.6674 154.679 39.403 154.524 39.2321C154.372 39.0612 154.144 38.9757 153.839 38.9757C153.623 38.9757 153.425 39.0278 153.246 39.132C153.07 39.2334 152.924 39.3723 152.81 39.5486V42.1324L153.463 42.2446V42.7494H151.367Z" fill="#4A5777"/>
<path d="M149.012 42.8335C148.62 42.8335 148.278 42.7427 147.987 42.5611C147.696 42.3768 147.47 42.1218 147.31 41.7959C147.15 41.4701 147.069 41.0936 147.069 40.6662V40.498C147.069 40.0867 147.147 39.7182 147.302 39.3923C147.457 39.0665 147.68 38.8088 147.971 38.6192C148.262 38.4296 148.609 38.3348 149.012 38.3348C149.362 38.3348 149.668 38.3922 149.93 38.507C150.194 38.6219 150.416 38.7794 150.595 38.9797L150.615 40.0213H149.998L149.862 39.2642C149.771 39.1707 149.657 39.0959 149.521 39.0398C149.385 38.9837 149.225 38.9557 149.04 38.9557C148.805 38.9557 148.598 39.0251 148.419 39.164C148.243 39.3029 148.106 39.4885 148.007 39.7208C147.908 39.9532 147.859 40.2122 147.859 40.498V40.6662C147.859 40.9814 147.904 41.2551 147.995 41.4875C148.088 41.7198 148.22 41.9001 148.391 42.0283C148.565 42.1538 148.771 42.2166 149.008 42.2166C149.275 42.2166 149.497 42.1431 149.673 41.9962C149.85 41.8493 149.958 41.6477 149.998 41.3913H150.707L150.715 41.4154C150.702 41.6637 150.628 41.8961 150.495 42.1124C150.361 42.3287 150.17 42.5037 149.922 42.6372C149.676 42.7681 149.373 42.8335 149.012 42.8335Z" fill="#4A5777"/>
<path d="M143.14 44.5C143.079 44.5 142.998 44.492 142.9 44.4759C142.801 44.4626 142.725 44.4492 142.671 44.4359L142.751 43.815C142.797 43.8203 142.86 43.8243 142.94 43.827C143.02 43.8323 143.075 43.835 143.104 43.835C143.272 43.835 143.408 43.7709 143.513 43.6427C143.619 43.5145 143.718 43.3396 143.809 43.1179L143.997 42.6612L142.463 38.9877L141.998 38.9236V38.4149H143.817V38.9236L143.292 39.0038L144.137 41.171L144.342 41.7358H144.366L145.367 39.0038L144.814 38.9236V38.4149H146.597V38.9236L146.148 38.9877L144.442 43.4144C144.362 43.6227 144.264 43.8083 144.149 43.9712C144.037 44.1368 143.898 44.2663 143.733 44.3598C143.57 44.4532 143.372 44.5 143.14 44.5Z" fill="#4A5777"/>
<path d="M139.723 42.8335C139.432 42.8335 139.16 42.8041 138.906 42.7454C138.652 42.6866 138.383 42.5958 138.097 42.4729L138.089 41.4434H138.686L138.834 42.0643C138.983 42.1258 139.128 42.1712 139.267 42.2005C139.408 42.2272 139.56 42.2406 139.723 42.2406C140.044 42.2406 140.273 42.1792 140.412 42.0563C140.551 41.9335 140.621 41.7812 140.621 41.5996C140.621 41.4287 140.55 41.2845 140.408 41.167C140.269 41.0468 140.016 40.9453 139.647 40.8625C139.124 40.7424 138.738 40.5821 138.489 40.3818C138.244 40.1789 138.121 39.9091 138.121 39.5726C138.121 39.3376 138.189 39.1279 138.325 38.9437C138.461 38.7567 138.651 38.6085 138.894 38.499C139.137 38.3895 139.42 38.3348 139.743 38.3348C140.072 38.3348 140.352 38.3722 140.585 38.4469C140.82 38.5217 141.024 38.6219 141.197 38.7474L141.237 39.7369H140.645L140.516 39.16C140.423 39.0906 140.312 39.0371 140.184 38.9998C140.056 38.9624 139.909 38.9437 139.743 38.9437C139.498 38.9437 139.297 39.0011 139.142 39.1159C138.99 39.2308 138.914 39.375 138.914 39.5486C138.914 39.6501 138.935 39.7382 138.978 39.813C139.024 39.8878 139.109 39.9559 139.234 40.0173C139.36 40.076 139.544 40.1348 139.787 40.1935C140.391 40.3351 140.812 40.5154 141.049 40.7343C141.29 40.9533 141.41 41.2231 141.41 41.5436C141.41 41.9094 141.274 42.2166 141.001 42.4649C140.731 42.7106 140.305 42.8335 139.723 42.8335Z" fill="#4A5777"/>
<path d="M132.661 42.7494V42.2446L133.314 42.1324V37.5376L132.661 37.4254V36.9166H135.341C135.758 36.9166 136.113 36.9901 136.407 37.137C136.7 37.2812 136.925 37.4842 137.08 37.7459C137.235 38.0076 137.312 38.3134 137.312 38.6633C137.312 39.0158 137.235 39.3229 137.08 39.5846C136.925 39.8464 136.7 40.0493 136.407 40.1935C136.113 40.3378 135.758 40.4099 135.341 40.4099H134.103V42.1324L134.756 42.2446V42.7494H132.661ZM134.103 39.7929H135.341C135.736 39.7929 136.031 39.6875 136.226 39.4765C136.424 39.2628 136.523 38.9944 136.523 38.6713C136.523 38.3481 136.424 38.0784 136.226 37.8621C136.031 37.6457 135.736 37.5376 135.341 37.5376H134.103V39.7929Z" fill="#4A5777"/>
<path d="M127.658 42.7494V42.2446L128.311 42.1324V37.1209L127.658 37.0088V36.5H129.101V42.1324L129.754 42.2446V42.7494H127.658Z" fill="#4A5777"/>
<path d="M125.099 42.8335C124.698 42.8335 124.352 42.74 124.061 42.5531C123.773 42.3634 123.55 42.1031 123.392 41.7719C123.235 41.4381 123.156 41.0575 123.156 40.6302V40.5421C123.156 40.1148 123.235 39.7355 123.392 39.4044C123.55 39.0705 123.773 38.8088 124.061 38.6192C124.352 38.4296 124.696 38.3348 125.091 38.3348C125.492 38.3348 125.836 38.4296 126.124 38.6192C126.416 38.8088 126.64 39.0692 126.797 39.4004C126.955 39.7315 127.034 40.1121 127.034 40.5421V40.6302C127.034 41.0602 126.955 41.4421 126.797 41.7759C126.64 42.1071 126.417 42.3661 126.128 42.5531C125.84 42.74 125.497 42.8335 125.099 42.8335ZM125.099 42.2166C125.35 42.2166 125.56 42.1485 125.728 42.0123C125.899 41.8734 126.027 41.6851 126.112 41.4474C126.201 41.2071 126.245 40.9346 126.245 40.6302V40.5421C126.245 40.2376 126.201 39.9665 126.112 39.7288C126.027 39.4885 125.899 39.3002 125.728 39.164C125.557 39.0251 125.345 38.9557 125.091 38.9557C124.84 38.9557 124.629 39.0251 124.458 39.164C124.287 39.3002 124.159 39.4885 124.073 39.7288C123.988 39.9665 123.945 40.2376 123.945 40.5421V40.6302C123.945 40.9346 123.988 41.2071 124.073 41.4474C124.159 41.6851 124.287 41.8734 124.458 42.0123C124.632 42.1485 124.845 42.2166 125.099 42.2166Z" fill="#4A5777"/>
<path d="M120.316 42.8335C119.916 42.8335 119.57 42.74 119.279 42.5531C118.99 42.3634 118.767 42.1031 118.61 41.7719C118.452 41.4381 118.373 41.0575 118.373 40.6302V40.5421C118.373 40.1148 118.452 39.7355 118.61 39.4044C118.767 39.0705 118.99 38.8088 119.279 38.6192C119.57 38.4296 119.913 38.3348 120.308 38.3348C120.709 38.3348 121.053 38.4296 121.342 38.6192C121.633 38.8088 121.857 39.0692 122.015 39.4004C122.172 39.7315 122.251 40.1121 122.251 40.5421V40.6302C122.251 41.0602 122.172 41.4421 122.015 41.7759C121.857 42.1071 121.634 42.3661 121.346 42.5531C121.057 42.74 120.714 42.8335 120.316 42.8335ZM120.316 42.2166C120.567 42.2166 120.777 42.1485 120.945 42.0123C121.116 41.8734 121.244 41.6851 121.33 41.4474C121.418 41.2071 121.462 40.9346 121.462 40.6302V40.5421C121.462 40.2376 121.418 39.9665 121.33 39.7288C121.244 39.4885 121.116 39.3002 120.945 39.164C120.774 39.0251 120.562 38.9557 120.308 38.9557C120.057 38.9557 119.846 39.0251 119.675 39.164C119.504 39.3002 119.376 39.4885 119.291 39.7288C119.205 39.9665 119.162 40.2376 119.162 40.5421V40.6302C119.162 40.9346 119.205 41.2071 119.291 41.4474C119.376 41.6851 119.504 41.8734 119.675 42.0123C119.849 42.1485 120.062 42.2166 120.316 42.2166Z" fill="#4A5777"/>
<path d="M112.914 42.7494V42.2446L113.566 42.1324V37.1209L112.914 37.0088V36.5H114.356V38.9917C114.505 38.7834 114.688 38.6219 114.904 38.507C115.121 38.3922 115.361 38.3348 115.626 38.3348C116.09 38.3348 116.451 38.4736 116.707 38.7514C116.964 39.0291 117.092 39.4564 117.092 40.0333V42.1324L117.745 42.2446V42.7494H115.65V42.2446L116.303 42.1324V40.0253C116.303 39.6674 116.225 39.403 116.07 39.2321C115.918 39.0612 115.69 38.9757 115.385 38.9757C115.169 38.9757 114.971 39.0278 114.792 39.132C114.616 39.2334 114.471 39.3723 114.356 39.5486V42.1324L115.009 42.2446V42.7494H112.914Z" fill="#4A5777"/>
<path d="M110.558 42.8335C110.166 42.8335 109.824 42.7427 109.533 42.5611C109.242 42.3768 109.016 42.1218 108.856 41.7959C108.696 41.4701 108.615 41.0936 108.615 40.6662V40.498C108.615 40.0867 108.693 39.7182 108.848 39.3923C109.003 39.0665 109.226 38.8088 109.517 38.6192C109.808 38.4296 110.155 38.3348 110.558 38.3348C110.908 38.3348 111.214 38.3922 111.476 38.507C111.74 38.6219 111.962 38.7794 112.141 38.9797L112.161 40.0213H111.544L111.408 39.2642C111.317 39.1707 111.203 39.0959 111.067 39.0398C110.931 38.9837 110.771 38.9557 110.586 38.9557C110.351 38.9557 110.144 39.0251 109.965 39.164C109.789 39.3029 109.652 39.4885 109.553 39.7208C109.454 39.9532 109.405 40.2122 109.405 40.498V40.6662C109.405 40.9814 109.45 41.2551 109.541 41.4875C109.634 41.7198 109.767 41.9001 109.937 42.0283C110.111 42.1538 110.317 42.2166 110.554 42.2166C110.821 42.2166 111.043 42.1431 111.219 41.9962C111.396 41.8493 111.504 41.6477 111.544 41.3913H112.253L112.261 41.4154C112.248 41.6637 112.174 41.8961 112.041 42.1124C111.907 42.3287 111.716 42.5037 111.468 42.6372C111.222 42.7681 110.919 42.8335 110.558 42.8335Z" fill="#4A5777"/>
<path d="M105.764 42.8335C105.408 42.8335 105.067 42.7814 104.738 42.6772C104.41 42.5731 104.096 42.4129 103.797 42.1965V40.9507H104.41L104.542 41.868C104.715 41.9749 104.904 42.0577 105.107 42.1164C105.31 42.1752 105.529 42.2045 105.764 42.2045C106.031 42.2045 106.256 42.1645 106.441 42.0844C106.628 42.0016 106.77 41.8881 106.869 41.7439C106.968 41.5996 107.017 41.4314 107.017 41.2391C107.017 41.0602 106.975 40.9026 106.889 40.7664C106.804 40.6302 106.662 40.5113 106.465 40.4099C106.27 40.3057 106.003 40.2149 105.663 40.1375C105.263 40.044 104.924 39.9198 104.646 39.7649C104.371 39.6073 104.161 39.4177 104.017 39.196C103.875 38.9717 103.805 38.7153 103.805 38.4269C103.805 38.1224 103.885 37.85 104.045 37.6097C104.208 37.3693 104.434 37.1797 104.722 37.0408C105.01 36.902 105.347 36.8325 105.732 36.8325C106.14 36.8325 106.501 36.8953 106.813 37.0208C107.128 37.1437 107.387 37.2932 107.59 37.4695V38.6352H106.977L106.845 37.802C106.725 37.7058 106.575 37.6257 106.397 37.5616C106.218 37.4975 105.996 37.4655 105.732 37.4655C105.507 37.4655 105.31 37.5055 105.139 37.5856C104.968 37.6631 104.834 37.7726 104.738 37.9141C104.642 38.0557 104.594 38.2226 104.594 38.4149C104.594 38.5831 104.637 38.73 104.722 38.8555C104.81 38.9811 104.952 39.0919 105.147 39.188C105.344 39.2815 105.607 39.3696 105.936 39.4524C106.55 39.6047 107.015 39.8303 107.33 40.1294C107.648 40.4259 107.807 40.7931 107.807 41.2311C107.807 41.5436 107.723 41.8213 107.554 42.0643C107.386 42.3047 107.148 42.493 106.841 42.6292C106.537 42.7654 106.178 42.8335 105.764 42.8335Z" fill="#4A5777"/>
<path d="M98.0489 42.8335C97.6643 42.8335 97.3291 42.764 97.0434 42.6252C96.7603 42.4836 96.5399 42.2887 96.3824 42.0403C96.2275 41.7919 96.15 41.5048 96.15 41.179C96.15 40.8585 96.2408 40.5781 96.4224 40.3378C96.604 40.0974 96.8751 39.8557 97.2356 39.6127C97.2437 39.6073 97.2503 39.6033 97.2557 39.6007C97.2637 39.5953 97.2704 39.5913 97.2757 39.5886C97.0674 39.3242 96.9125 39.0892 96.811 38.8836C96.7095 38.6753 96.6588 38.4616 96.6588 38.2426C96.6588 37.9408 96.7175 37.6858 96.8351 37.4775C96.9526 37.2665 97.1208 37.1063 97.3398 36.9968C97.5588 36.8873 97.8205 36.8325 98.125 36.8325C98.4081 36.8325 98.6564 36.8886 98.8701 37.0008C99.0837 37.1129 99.2507 37.2625 99.3708 37.4494C99.491 37.6364 99.5511 37.8447 99.5511 38.0744C99.5511 38.3361 99.4803 38.5631 99.3388 38.7554C99.1999 38.945 98.9929 39.14 98.7179 39.3403L98.2812 39.6607L99.6432 41.2992C99.7527 41.1256 99.8382 40.9333 99.8996 40.7223C99.9611 40.5114 99.9918 40.2883 99.9918 40.0533H100.697C100.697 40.4032 100.645 40.7277 100.541 41.0268C100.436 41.3259 100.286 41.5943 100.088 41.832L100.829 42.7293L100.821 42.7494H99.9036L99.5631 42.3407C99.3495 42.501 99.1131 42.6238 98.8541 42.7093C98.595 42.7921 98.3266 42.8335 98.0489 42.8335ZM98.0489 42.2166C98.2412 42.2166 98.4308 42.1845 98.6177 42.1204C98.8047 42.0537 98.9809 41.9588 99.1465 41.836L97.7003 40.0934L97.5401 40.2096C97.2971 40.3912 97.1355 40.5648 97.0554 40.7303C96.9779 40.8959 96.9392 41.0455 96.9392 41.179C96.9392 41.4808 97.034 41.7292 97.2236 41.9241C97.4132 42.1191 97.6883 42.2166 98.0489 42.2166ZM97.8806 39.18L98.4334 38.7995C98.5857 38.698 98.6885 38.5885 98.7419 38.471C98.798 38.3508 98.826 38.2186 98.826 38.0744C98.826 37.9115 98.7606 37.7672 98.6297 37.6417C98.5015 37.5162 98.3333 37.4534 98.125 37.4534C97.9087 37.4534 97.7417 37.5296 97.6242 37.6818C97.5067 37.8313 97.448 38.0156 97.448 38.2346C97.448 38.3762 97.484 38.5244 97.5561 38.6793C97.6282 38.8315 97.7364 38.9984 97.8806 39.18Z" fill="#4A5777"/>
<path d="M91.1754 42.7494V42.2446L91.8284 42.1324V37.1209L91.1754 37.0088V36.5H92.6175V42.1324L93.2705 42.2446V42.7494H91.1754Z" fill="#4A5777"/>
<path d="M87.947 42.8335C87.4956 42.8335 87.1524 42.724 86.9174 42.505C86.6824 42.2833 86.5649 41.9722 86.5649 41.5716C86.5649 41.2965 86.6397 41.0575 86.7892 40.8545C86.9415 40.6489 87.1605 40.49 87.4462 40.3778C87.732 40.263 88.0738 40.2056 88.4717 40.2056H89.2449V39.7809C89.2449 39.5192 89.1648 39.3162 89.0045 39.172C88.847 39.0278 88.624 38.9557 88.3355 38.9557C88.1539 38.9557 87.9964 38.9784 87.8628 39.0238C87.7293 39.0665 87.6078 39.1266 87.4983 39.2041L87.4142 39.809H86.8053V38.8155C87.0002 38.6579 87.2272 38.5391 87.4863 38.459C87.7453 38.3762 88.0324 38.3348 88.3476 38.3348C88.8737 38.3348 89.2863 38.4603 89.5854 38.7113C89.8845 38.9624 90.0341 39.3216 90.0341 39.7889V41.8761C90.0341 41.9321 90.0341 41.9869 90.0341 42.0403C90.0368 42.0937 90.0408 42.1471 90.0461 42.2005L90.4667 42.2446V42.7494H89.333C89.309 42.6319 89.2903 42.5264 89.2769 42.4329C89.2636 42.3394 89.2543 42.2459 89.2489 42.1525C89.0967 42.3474 88.9057 42.5103 88.676 42.6412C88.449 42.7694 88.206 42.8335 87.947 42.8335ZM88.0631 42.1725C88.3249 42.1725 88.5639 42.1097 88.7802 41.9842C88.9965 41.8587 89.1514 41.7078 89.2449 41.5315V40.7464H88.4437C88.0805 40.7464 87.8081 40.8332 87.6265 41.0068C87.4449 41.1803 87.3541 41.374 87.3541 41.5876C87.3541 41.7772 87.4128 41.9228 87.5303 42.0243C87.6479 42.1231 87.8254 42.1725 88.0631 42.1725Z" fill="#4A5777"/>
<path d="M84.0095 42.8335C83.6169 42.8335 83.275 42.7427 82.9839 42.5611C82.6928 42.3768 82.4671 42.1218 82.3069 41.7959C82.1467 41.4701 82.0666 41.0936 82.0666 40.6662V40.498C82.0666 40.0867 82.144 39.7182 82.2989 39.3923C82.4538 39.0665 82.6768 38.8088 82.9679 38.6192C83.259 38.4296 83.6062 38.3348 84.0095 38.3348C84.3593 38.3348 84.6651 38.3922 84.9268 38.507C85.1912 38.6219 85.4129 38.7794 85.5918 38.9797L85.6118 40.0213H84.9949L84.8587 39.2642C84.7679 39.1707 84.6544 39.0959 84.5182 39.0398C84.382 38.9837 84.2218 38.9557 84.0375 38.9557C83.8025 38.9557 83.5955 39.0251 83.4166 39.164C83.2403 39.3029 83.1028 39.4885 83.004 39.7208C82.9051 39.9532 82.8557 40.2122 82.8557 40.498V40.6662C82.8557 40.9814 82.9011 41.2551 82.9919 41.4875C83.0854 41.7198 83.2176 41.9001 83.3885 42.0283C83.5621 42.1538 83.7678 42.2166 84.0054 42.2166C84.2725 42.2166 84.4942 42.1431 84.6704 41.9962C84.8467 41.8493 84.9549 41.6477 84.9949 41.3913H85.704L85.712 41.4154C85.6986 41.6637 85.6252 41.8961 85.4917 42.1124C85.3581 42.3287 85.1672 42.5037 84.9188 42.6372C84.6731 42.7681 84.37 42.8335 84.0095 42.8335Z" fill="#4A5777"/>
<path d="M79.2748 42.7494V42.2446L79.9277 42.1324V39.0358L79.2748 38.9236V38.4149H80.7169V42.1324L81.3699 42.2446V42.7494H79.2748ZM79.8877 37.3453V36.5H80.7169V37.3453H79.8877Z" fill="#4A5777"/>
<path d="M73.7829 42.7494V42.2446L74.4359 42.1324V39.0358L73.7829 38.9236V38.4149H75.141L75.197 39.0598C75.3413 38.8302 75.5215 38.6526 75.7378 38.5271C75.9568 38.3989 76.2052 38.3348 76.483 38.3348C76.9503 38.3348 77.3122 38.4723 77.5686 38.7474C77.825 39.0198 77.9532 39.4418 77.9532 40.0133V42.1324L78.6061 42.2446V42.7494H76.511V42.2446L77.164 42.1324V40.0293C77.164 39.6474 77.0879 39.3763 76.9356 39.2161C76.7861 39.0558 76.5564 38.9757 76.2466 38.9757C76.0196 38.9757 75.818 39.0305 75.6417 39.14C75.4681 39.2495 75.3292 39.399 75.2251 39.5886V42.1324L75.8781 42.2446V42.7494H73.7829Z" fill="#4A5777"/>
<path d="M71.0072 42.7494V42.2446L71.6602 42.1324V39.0358L71.0072 38.9236V38.4149H72.4494V42.1324L73.1023 42.2446V42.7494H71.0072ZM71.6201 37.3453V36.5H72.4494V37.3453H71.6201Z" fill="#4A5777"/>
<path d="M68.2395 42.7494V42.2446L68.8924 42.1324V37.1209L68.2395 37.0088V36.5H69.6816V42.1324L70.3346 42.2446V42.7494H68.2395Z" fill="#4A5777"/>
<path d="M65.6399 42.8335C65.0551 42.8335 64.5663 42.7053 64.1738 42.4489C63.7838 42.1925 63.4901 41.8413 63.2924 41.3953C63.0975 40.9493 63 40.4432 63 39.8771V39.7929C63 39.2214 63.1028 38.714 63.3085 38.2707C63.5141 37.8247 63.8092 37.4735 64.1938 37.2171C64.5784 36.9607 65.0377 36.8325 65.5718 36.8325C65.9484 36.8325 66.2929 36.8913 66.6054 37.0088C66.9179 37.1263 67.1769 37.2759 67.3825 37.4575V38.7153H66.7536L66.6695 37.794C66.584 37.7272 66.4852 37.6711 66.373 37.6257C66.2635 37.5803 66.1407 37.5456 66.0045 37.5215C65.871 37.4975 65.7254 37.4855 65.5678 37.4855C65.1859 37.4855 64.8628 37.5843 64.5984 37.7819C64.334 37.9769 64.1337 38.2466 63.9975 38.5911C63.8613 38.9357 63.7932 39.3336 63.7932 39.7849V39.8771C63.7932 40.3658 63.8653 40.7838 64.0095 41.1309C64.1564 41.4755 64.3687 41.7385 64.6465 41.9201C64.9269 42.1017 65.2674 42.1925 65.668 42.1925C65.8549 42.1925 66.0379 42.1698 66.2168 42.1244C66.3957 42.079 66.544 42.0203 66.6615 41.9482L66.7496 41.1349H67.3665V42.4008C67.1475 42.537 66.8858 42.6439 66.5814 42.7213C66.2769 42.7961 65.9631 42.8335 65.6399 42.8335Z" fill="#4A5777"/>
</svg>
