<svg width="80" height="80" viewBox="0 0 80 80" fill="none" xmlns="http://www.w3.org/2000/svg">
<g id="help-icon-8" clip-path="url(#clip0_215_3800)">
<g id="Vector">
<path d="M16.1732 9.93601C17.0314 9.07778 18.2004 8.54509 19.5173 8.54509C20.8194 8.54509 22.0032 9.07778 22.8614 9.93601C23.7197 10.7942 24.2523 11.9632 24.2523 13.2801C24.2523 14.5823 23.7197 15.766 22.8614 16.6243C22.0032 17.4825 20.8342 18.0152 19.5173 18.0152C18.2152 18.0152 17.0314 17.4825 16.1732 16.6243C15.3149 15.766 14.7822 14.5971 14.7822 13.2801C14.7822 11.978 15.3149 10.7942 16.1732 9.93601ZM19.5173 20.5603C21.5297 20.5603 23.3497 19.7465 24.6667 18.4295C25.9836 17.1126 26.7974 15.2925 26.7974 13.2801C26.7974 11.2677 25.9836 9.44771 24.6667 8.13077C23.3497 6.81384 21.5149 6 19.5173 6C17.5049 6 15.6849 6.81384 14.3679 8.13077C13.051 9.44771 12.2372 11.2677 12.2372 13.2801C12.2372 15.2925 13.051 17.1126 14.3679 18.4295C15.6849 19.7465 17.5049 20.5603 19.5173 20.5603Z" fill="#4A5777"/>
<path d="M4.72026 24.2448C4.86823 24.3483 5.0014 24.5111 5.07539 24.6887C5.5045 25.6801 6.17037 27.6629 6.22955 30.6075V45.7301C6.22955 47.8756 6.999 49.8732 8.28634 51.4417C9.57368 52.9954 11.3937 54.1348 13.5097 54.5343L24.7259 56.6651L24.0304 59.8464L23.2018 59.6985L19.8576 59.077L5.20856 55.8216C4.42431 55.2889 3.77325 54.5787 3.29974 53.7648C2.79664 52.877 2.53029 51.8708 2.5155 50.8054L2.64867 25.6209C2.64867 25.1918 2.82623 24.8218 3.10738 24.5407C3.38852 24.2595 3.75845 24.0968 4.18756 24.0968H4.20236C4.36513 24.0968 4.52789 24.156 4.67586 24.2595L4.72026 24.2448ZM4.26155 21.5221H4.23195C3.10738 21.5221 2.08638 21.9808 1.34653 22.7059C0.606679 23.4309 0.14797 24.4667 0.14797 25.5765L0 50.7758C0 52.2999 0.39952 53.7501 1.10978 54.993C1.70166 56.0288 2.5007 56.9462 3.46251 57.6713V76.1824C3.46251 76.8926 4.03959 77.4549 4.73505 77.4549C5.43051 77.4549 6.0076 76.8778 6.0076 76.1824V58.6035L18.3483 61.3557V76.4783C18.3483 77.1886 18.9254 77.7509 19.6209 77.7509C20.3163 77.7509 20.8934 77.1738 20.8934 76.4783V61.8736L22.7578 62.2288H22.7726L23.912 62.4211C24.0452 62.4359 24.1636 62.4507 24.2967 62.4507C24.8146 62.4507 25.3029 62.2731 25.6877 61.9624C26.0724 61.6517 26.3683 61.2078 26.4719 60.6899L27.2414 57.1534L28.1588 57.3309C28.4991 57.3901 28.7802 57.5677 28.9874 57.8192C29.1946 58.0708 29.3129 58.3815 29.3129 58.7071C29.3129 58.8106 29.3129 58.9142 29.2685 59.0326L25.6729 74.1256C25.5841 74.4955 25.5397 74.8654 25.5397 75.2354C25.5397 76.5227 26.0576 77.7213 26.9158 78.5795C27.3449 79.0086 27.8628 79.3637 28.4399 79.6153C29.017 79.8668 29.6533 80 30.3191 80C31.3993 80 32.4203 79.6301 33.2342 79.0086C34.048 78.3723 34.6547 77.4845 34.9358 76.4339L39.153 60.1868C39.3749 59.3729 39.4637 58.5443 39.4637 57.7305C39.4637 55.4961 38.6943 53.3801 37.3477 51.6933C36.0012 50.0064 34.0776 48.7486 31.7988 48.2603L25.8948 47.0026C25.3473 46.8842 24.8886 46.5883 24.5483 46.174C24.2228 45.7597 24.0304 45.2418 24.0304 44.6943C24.0304 44.6351 24.0304 44.5759 24.0304 44.5167L24.2523 41.5721C24.3115 40.8766 23.7788 40.2552 23.0834 40.2108C22.3879 40.1516 21.7664 40.6843 21.7221 41.3797L21.5001 44.3243C21.5001 44.4427 21.5001 44.5759 21.5001 44.6943C21.5001 45.8484 21.8996 46.9286 22.5951 47.772C23.2757 48.6155 24.2523 49.2518 25.3917 49.4885L31.2957 50.7463C32.9826 51.1014 34.3883 52.0188 35.3797 53.2765C36.3711 54.5195 36.9482 56.088 36.9482 57.7305C36.9482 58.3223 36.8742 58.929 36.7115 59.5357L32.4943 75.7681C32.3611 76.2564 32.08 76.6855 31.6953 76.9666C31.3253 77.2626 30.8518 77.4253 30.3339 77.4253C30.0084 77.4253 29.7273 77.3661 29.4609 77.2477C29.0614 77.0702 28.7211 76.789 28.4843 76.4339C28.2476 76.0788 28.1144 75.6497 28.1144 75.2058C28.1144 75.043 28.1292 74.8654 28.1736 74.6879L31.7692 59.5949C31.8432 59.2841 31.8728 58.9882 31.8728 58.6775C31.8728 57.7453 31.5473 56.8722 30.985 56.1768C30.4227 55.4813 29.6089 54.9782 28.6619 54.8006L14.0128 52.0188C12.5035 51.7377 11.2014 50.9238 10.2839 49.814C9.36653 48.6895 8.81904 47.269 8.81904 45.7301V27.9292C8.81904 26.7011 9.32213 25.5913 10.1212 24.7922C10.935 23.9932 12.03 23.4901 13.2581 23.4901C13.2877 23.4901 13.3321 23.4901 13.3617 23.4901H13.9388C15.5369 24.5999 17.4753 25.2362 19.5469 25.2362C21.8996 25.2362 24.0748 24.4075 25.7764 23.0166L30.8666 21.4629C31.4289 21.2853 31.9024 20.9302 32.2132 20.5011C32.5387 20.0572 32.7163 19.5245 32.7163 18.9622C32.7163 18.6219 32.6571 18.2815 32.5091 17.956L30.4375 12.999C30.3783 12.8362 30.3487 12.6883 30.3487 12.5403C30.3487 12.2887 30.4375 12.0224 30.6003 11.8152C30.763 11.6081 30.985 11.4601 31.2661 11.4009C31.3549 11.3861 31.4437 11.3713 31.5325 11.3713C31.7692 11.3713 31.9912 11.4453 32.1836 11.5785C32.3759 11.7117 32.5239 11.8892 32.6275 12.126L34.8766 17.7341C35.0838 18.2667 35.1874 18.7994 35.1874 19.3173C35.1874 20.22 34.8914 21.093 34.3735 21.818C33.8556 22.5431 33.1158 23.1054 32.1836 23.4013L26.0872 25.3249C24.1192 25.9464 22.7283 27.7221 22.5951 29.7788L22.4915 31.155C22.4323 31.8504 22.965 32.4719 23.6605 32.5311C24.3559 32.5903 24.9774 32.0576 25.0366 31.3621L25.1402 29.986C25.1994 28.9502 25.8948 28.0772 26.8714 27.7664L32.9678 25.8428C34.4327 25.3841 35.6313 24.4667 36.4599 23.3125C37.2885 22.1584 37.7472 20.7674 37.7472 19.3173C37.7472 18.4739 37.5845 17.6157 37.2589 16.7722L35.0098 11.1494C34.7287 10.4243 34.2256 9.84723 33.6189 9.43291C33.0122 9.03339 32.2871 8.79664 31.5473 8.79664C31.2661 8.79664 30.985 8.82624 30.7039 8.90022C29.8308 9.09258 29.1058 9.59568 28.6027 10.2468C28.0996 10.8978 27.8184 11.6969 27.8184 12.5403C27.8184 13.0138 27.9072 13.5169 28.1144 13.9756L30.186 18.9326V19.0066L30.1416 19.0362L24.7998 20.6639C24.6223 20.7083 24.4743 20.797 24.3411 20.9154C23.0538 22.0252 21.3817 22.6911 19.5469 22.6911C17.8896 22.6911 16.3655 22.1436 15.1374 21.2262C14.9302 21.0634 14.6639 20.9746 14.3975 20.9746L13.4357 20.945C13.4357 20.945 13.3321 20.945 13.2729 20.945C11.3493 20.945 9.58848 21.7293 8.33073 22.987C8.04959 23.2681 7.79804 23.5789 7.56129 23.9044C7.53169 23.8304 7.5021 23.7564 7.47251 23.6825C7.20616 23.061 6.77704 22.5283 6.22955 22.1584C5.68206 21.7736 5.03099 21.5517 4.32074 21.5369H4.30594L4.26155 21.5221Z" fill="#4A5777"/>
</g>
</g>
<defs>
<clipPath id="clip0_215_3800">
<rect width="80" height="80" fill="white"/>
</clipPath>
</defs>
</svg>
