<svg width="24" height="24" viewBox="0 0 24 24" fill="none" xmlns="http://www.w3.org/2000/svg">
<path d="M6.99 3.8V15.44H24V3.8H6.99ZM21.08 5.23L15.49 7.98L9.9 5.23H21.08ZM22.57 14.01H8.42V6.1L14.86 9.26L15.49 9.57L16.12 9.26L22.56 6.1V14.01H22.57Z" fill="#00988F"/>
<path d="M21.49 22.57L16.61 18.36C16.12 18.01 15.54 17.82 14.94 17.82H2.87C2.08 17.82 1.44 17.18 1.44 16.39V2.85C1.44 2.06 2.08 1.42 2.87 1.42H20.06C20.85 1.42 21.49 2.06 21.49 2.85V3.09H22.92V2.85C22.92 1.27 21.64 0 20.05 0H2.87C1.28 0 0 1.28 0 2.85V16.4C0 17.98 1.28 19.25 2.87 19.25H14.95C15.25 19.25 15.54 19.34 15.79 19.52L20.67 23.73C20.93 23.92 21.22 24 21.5 24C22.24 24 22.94 23.41 22.94 22.57V16.14H21.51V22.57H21.49Z" fill="#00988F"/>
</svg>
